<svg id="Livello_1" data-name="Livello 1" xmlns="http://www.w3.org/2000/svg" viewBox="0 0 669.95 541"><defs><style>.cls-1{fill:#0d151e;}.cls-2{fill:#2f343b;}.cls-3,.cls-4,.cls-5,.cls-7,.cls-9{fill:none;}.cls-3,.cls-4,.cls-5,.cls-7,.cls-8{stroke:#C1C8D2;}.cls-3,.cls-41,.cls-5,.cls-8,.cls-9{stroke-miterlimit:10;}.cls-3,.cls-7,.cls-8{stroke-width:2px;}.cls-4,.cls-7{stroke-linejoin:round;}.cls-6,.cls-8{fill:#C1C8D2;}.cls-9{stroke:#2f343b;}.cls-10{fill:#bdbbc2;}.cls-11{fill:#009dbb;}.cls-12{fill:#79d2cb;}.cls-13{fill:#c3e6d5;}.cls-14{fill:#f7fdd6;}.cls-15{fill:#ff5a7c;}.cls-16{fill:#002742;}.cls-17{fill:#fdfffd;}.cls-18,.cls-41{fill:#00d3cd;}.cls-19{fill:#ff595e;}.cls-20{fill:#ffbe50;}.cls-21{fill:#ffb8b0;}.cls-22{fill:#f8d0bc;}.cls-23{fill:#f8e2c9;}.cls-24{fill:#b5c8ce;}.cls-25{fill:#3ba3be;}.cls-26{fill:#fef9b8;}.cls-27{fill:#b4cda2;}.cls-28{fill:#8fab9a;}.cls-29{fill:#637291;}.cls-30{fill:#61557f;}.cls-31{fill:#373c53;}.cls-32{fill:#9ca9bb;}.cls-33{fill:#f0f5f6;}.cls-34{fill:#ff424f;}.cls-35{fill:#ee2a3a;}.cls-36{fill:#00e9fe;}.cls-37{fill:#6beb98;}.cls-38{fill:#eafc3e;}.cls-39{fill:#f4b92f;}.cls-40{fill:#ff7128;}.cls-41{stroke:#0d151e;}.cls-42{fill:#fff;}</style></defs><title>addon</title><rect class="cls-1" x="344.45" width="276" height="541" rx="7.39" ry="7.39"/><path class="cls-2" d="M351.66,0H613.24a7.21,7.21,0,0,1,7.21,7.21V26a0,0,0,0,1,0,0h-276a0,0,0,0,1,0,0V7.21A7.21,7.21,0,0,1,351.66,0Z"/><path class="cls-3" d="M35.57,465.24L130.36,297.4a7.3,7.3,0,0,1,12.25.06l92.57,167.79H35.57Z"/><path class="cls-4" d="M93.56,363.49l1,1a19.21,19.21,0,0,0,27-.24l0.09-.09a19.21,19.21,0,0,1,27.16,0h0a19.21,19.21,0,0,0,27,.15l2.38-2.32"/><path class="cls-3" d="M193.06,388.89l28.71-50.84a5.54,5.54,0,0,1,9.28,0l70.15,127.15h-66"/><path class="cls-4" d="M197.3,382l0.69,0.67a12.86,12.86,0,0,0,18.06-.16l0.06-.06a12.86,12.86,0,0,1,18.19,0h0a12.86,12.86,0,0,0,18.06.1l1.59-1.55"/><path class="cls-3" d="M248.21,233.2a7.17,7.17,0,0,0-7.17,7.17,7.17,7.17,0,0,0-7.17-7.17"/><path class="cls-3" d="M267.32,249.58a7.17,7.17,0,0,0-7.17,7.17,7.17,7.17,0,0,0-7.17-7.17"/><line class="cls-5" x1="64.7" y1="271.86" x2="142.03" y2="194.54"/><circle class="cls-6" cx="142.03" cy="194.54" r="3.51"/><circle class="cls-6" cx="65.15" cy="271.41" r="3.51"/><rect class="cls-6" x="99.69" y="231.01" width="5.87" height="5.87"/><polygon class="cls-6" points="68.88 278.91 81.28 288.39 74.34 289.12 69.88 294.49 68.88 278.91"/><path class="cls-7" d="M150.81,313.23q1.18-.36,2.35-0.78a47.89,47.89,0,1,0-30.69.63"/><circle class="cls-7" cx="35.57" cy="93.5" r="29.59"/><rect class="cls-8" x="27.68" y="137" width="15.77" height="15.77"/><ellipse class="cls-4" cx="35.57" cy="93.5" rx="19.22" ry="29.59"/><line class="cls-4" x1="35.57" y1="63.91" x2="35.57" y2="123.09"/><path class="cls-4" d="M17.91,117.33C23.85,121.84,29.57,129,29.57,137"/><path class="cls-4" d="M53.32,117.33C47.38,121.84,41.57,129,41.57,137"/><line class="cls-9" x1="344.45" y1="26.03" x2="620.45" y2="26.03"/><polygon class="cls-6" points="604.63 9.31 608.51 13.19 604.63 17.07 604.63 9.31"/><polygon class="cls-6" points="600.76 9.31 604.63 13.19 600.76 17.07 600.76 9.31"/><rect class="cls-1" x="630.05" width="39.89" height="253.17" rx="7.39" ry="7.39"/><path class="cls-2" d="M637.37,0h25.21a7.35,7.35,0,0,1,7.35,7.35V37.5H630V7.36A7.35,7.35,0,0,1,637.37,0Z"/><path class="cls-6" d="M644.72,59.26v7.8a0.81,0.81,0,0,0,.81.81h6.37a0.81,0.81,0,0,0,.81-0.81V58.88l-0.28-.81s0.84-3.16,1.88-3.31c0.62-.1,1.71-0.34,2.48-0.52a0.81,0.81,0,0,0,.57-1.08c-0.43-1.1-1.38-2.84-3-2.84a4.29,4.29,0,0,0-2.93,1.13,0.8,0.8,0,0,0,0,1.19c0.53,0.48,1.19,1.17,1,1.55s-0.93,2.54-1.26,3.56a0.81,0.81,0,0,1-.79.56l-0.66,0V52.2a0.81,0.81,0,0,1,.22-0.56L650.5,51a0.81,0.81,0,0,0,.22-0.56v-1.8a0.81,0.81,0,0,0-.81-0.81h-2.37a0.81,0.81,0,0,0-.81.81v1.8a0.81,0.81,0,0,0,.3.63l0.4,0.32a0.81,0.81,0,0,1,.3.63v3.55a0.81,0.81,0,0,1-1.53.38l-0.44-.83a0.81,0.81,0,0,1,0-.75,1.71,1.71,0,0,0-.17-2.09,6,6,0,0,1-1.12-1.72,0.81,0.81,0,0,0-1.51.12c-0.48,1.59-.72,3.75,1,4.91,2.22,1.52,1.49,2.61,1,3a0.78,0.78,0,0,0-.24.58"/><rect class="cls-6" x="641.31" y="86.45" width="17.38" height="1.13"/><rect class="cls-6" x="641.31" y="91.21" width="17.38" height="1.8"/><rect class="cls-6" x="641.31" y="95.99" width="17.38" height="2.98"/><path class="cls-6" d="M653.5,123.79a6.25,6.25,0,1,1-6.25-6.25,6.25,6.25,0,0,1,6.25,6.25"/><path class="cls-6" d="M652.25,135.54a6.75,6.75,0,1,1,6.75-6.75A6.76,6.76,0,0,1,652.25,135.54Zm0-12.5a5.75,5.75,0,1,0,5.75,5.75A5.76,5.76,0,0,0,652.25,123Z"/><path class="cls-6" d="M655.78,162.73a5.81,5.81,0,1,1-5.81-5.81,5.81,5.81,0,0,1,5.81,5.81"/><path class="cls-6" d="M651,171.3a0.5,0.5,0,0,1-.06-1,7.91,7.91,0,0,0,.91-0.17,0.5,0.5,0,1,1,.24,1,9,9,0,0,1-1,.19H651Zm-2.92-.17h-0.12a8.46,8.46,0,0,1-1-.31,0.5,0.5,0,0,1,.35-0.94,7.57,7.57,0,0,0,.88.27A0.5,0.5,0,0,1,648.06,171.13Zm6.55-1.22a0.5,0.5,0,0,1-.29-0.91,7.72,7.72,0,0,0,.72-0.57,0.5,0.5,0,1,1,.66.75,9.12,9.12,0,0,1-.82.64A0.5,0.5,0,0,1,654.61,169.91Zm-10-.57a0.5,0.5,0,0,1-.33-0.12,8.72,8.72,0,0,1-.74-0.73,0.5,0.5,0,1,1,.74-0.67,7.6,7.6,0,0,0,.66.65A0.5,0.5,0,0,1,644.61,169.34ZM657.18,167a0.51,0.51,0,0,1-.23-0.06,0.5,0.5,0,0,1-.21-0.68,7.46,7.46,0,0,0,.38-0.84,0.5,0.5,0,1,1,.94.35,8.74,8.74,0,0,1-.43,1A0.5,0.5,0,0,1,657.18,167Zm-14.79-.84a0.5,0.5,0,0,1-.47-0.32,8.44,8.44,0,0,1-.32-1,0.5,0.5,0,0,1,.36-0.61,0.49,0.49,0,0,1,.61.36,7.7,7.7,0,0,0,.28.88,0.5,0.5,0,0,1-.29.65A0.49,0.49,0,0,1,642.39,166.15Zm15.71-2.93a0.5,0.5,0,0,1-.5-0.5,7.91,7.91,0,0,0-.06-0.92,0.5,0.5,0,1,1,1-.12,8.65,8.65,0,0,1,.06,1,0.5,0.5,0,0,1-.5.5h0Zm-16.2-.92h-0.06a0.5,0.5,0,0,1-.44-0.55,8.69,8.69,0,0,1,.18-1,0.5,0.5,0,1,1,1,.23,7.48,7.48,0,0,0-.16.91A0.5,0.5,0,0,1,641.9,162.3Zm15.26-2.85a0.5,0.5,0,0,1-.44-0.27,7.52,7.52,0,0,0-.48-0.79,0.5,0.5,0,0,1,.82-0.57,8.8,8.8,0,0,1,.54.89A0.5,0.5,0,0,1,657.16,159.45Zm-13.91-.79a0.5,0.5,0,0,1-.41-0.78,8.66,8.66,0,0,1,.64-0.82,0.5,0.5,0,1,1,.75.66,7.53,7.53,0,0,0-.56.73A0.5,0.5,0,0,1,643.26,158.66Zm11.33-2.11a0.49,0.49,0,0,1-.28-0.09,7.73,7.73,0,0,0-.79-0.48,0.5,0.5,0,0,1,.46-0.88,8.5,8.5,0,0,1,.89.54A0.5,0.5,0,0,1,654.58,156.54Zm-8.44-.48a0.5,0.5,0,0,1-.24-0.94,8.65,8.65,0,0,1,.95-0.43,0.5,0.5,0,1,1,.36.93,7.73,7.73,0,0,0-.84.38A0.5,0.5,0,0,1,646.15,156.06Zm4.8-.9h-0.06a7.71,7.71,0,0,0-.92-0.05,0.52,0.52,0,0,1-.53-0.5,0.48,0.48,0,0,1,.47-0.5H650a8.51,8.51,0,0,1,1,.06A0.5,0.5,0,0,1,651,155.17Z"/><path class="cls-6" d="M658.71,204.49H644.08V189.87h14.63v14.63Zm-13.62-1h12.63V190.87H645.08v12.63Z"/><rect class="cls-1" x="644.32" y="199.88" width="5.71" height="5.71"/><path class="cls-6" d="M649.53,205.09h-4.71v-4.71h4.71v4.71Zm1-5.71h-6.71v6.71h6.71v-6.71Z"/><rect class="cls-6" x="641.79" y="197.18" width="5.77" height="5.77"/><path class="cls-6" d="M648.06,203.45h-6.77v-6.77h6.77v6.77Zm-5.77-1h4.77v-4.77h-4.77v4.77Z"/><path class="cls-6" d="M647.72,231.22h-6.56v-6.56h6.56v6.56Zm-5.56-1h4.56v-4.56h-4.56v4.56Z"/><path class="cls-6" d="M653.28,231.22h-6.56v-6.56h6.56v6.56Zm-5.56-1h4.56v-4.56h-4.56v4.56Z"/><path class="cls-6" d="M658.84,231.22h-6.56v-6.56h6.56v6.56Zm-5.56-1h4.56v-4.56h-4.56v4.56Z"/><path class="cls-6" d="M647.72,236.78h-6.56v-6.56h6.56v6.56Zm-5.56-1h4.56v-4.56h-4.56v4.56Z"/><path class="cls-6" d="M653.28,236.78h-6.56v-6.56h6.56v6.56Zm-5.56-1h4.56v-4.56h-4.56v4.56Z"/><path class="cls-6" d="M658.84,236.78h-6.56v-6.56h6.56v6.56Zm-5.56-1h4.56v-4.56h-4.56v4.56Z"/><path class="cls-6" d="M657.55,20.79a2.58,2.58,0,0,0-3.57.69h0l0,0h0a4.11,4.11,0,1,1,0-4.64h0A2.58,2.58,0,0,0,658.24,14l0,0h0a9.26,9.26,0,1,0,0,10.43h0l0,0a2.58,2.58,0,0,0-.69-3.58"/><path class="cls-10" d="M650,22.53h0l0,0,0,0"/><polyline class="cls-10" points="650 22.48 649.99 22.49 650 22.48 650 22.48"/><polyline class="cls-10" points="650 17.9 649.99 17.89 650 17.89 650 17.9"/><path class="cls-6" d="M359.63,13v0a3.53,3.53,0,0,1,3.54-3.62,3.62,3.62,0,0,1,2.5.91,0.44,0.44,0,0,1,.16.32,0.41,0.41,0,0,1-.4.39,0.47,0.47,0,0,1-.26-0.09,2.87,2.87,0,0,0-2-.8A2.74,2.74,0,0,0,360.45,13v0a2.76,2.76,0,0,0,2.71,2.89,2.86,2.86,0,0,0,2.08-.85,0.36,0.36,0,0,1,.25-0.11,0.39,0.39,0,0,1,.38.38,0.37,0.37,0,0,1-.13.28,3.59,3.59,0,0,1-2.6,1A3.49,3.49,0,0,1,359.63,13Z"/><path class="cls-6" d="M366.77,14v0a2.69,2.69,0,0,1,5.39,0v0a2.68,2.68,0,0,1-2.71,2.7A2.65,2.65,0,0,1,366.77,14Zm4.6,0v0a2,2,0,0,0-1.92-2,1.91,1.91,0,0,0-1.89,2v0a1.94,1.94,0,0,0,1.91,2A1.91,1.91,0,0,0,371.37,14Z"/><path class="cls-6" d="M373.23,14v0a2.69,2.69,0,0,1,5.39,0v0a2.68,2.68,0,0,1-2.71,2.7A2.65,2.65,0,0,1,373.23,14Zm4.6,0v0a2,2,0,0,0-1.92-2,1.91,1.91,0,0,0-1.89,2v0a1.94,1.94,0,0,0,1.91,2A1.91,1.91,0,0,0,377.83,14Z"/><path class="cls-6" d="M380.08,9.57a0.38,0.38,0,1,1,.77,0v6.62a0.38,0.38,0,0,1-.38.39,0.38,0.38,0,0,1-.39-0.39V9.57Z"/><path class="cls-6" d="M382.32,14v0a2.69,2.69,0,0,1,5.39,0v0a2.68,2.68,0,0,1-2.71,2.7A2.65,2.65,0,0,1,382.32,14Zm4.6,0v0a2,2,0,0,0-1.92-2,1.91,1.91,0,0,0-1.89,2v0A1.94,1.94,0,0,0,385,16,1.91,1.91,0,0,0,386.92,14Z"/><path class="cls-6" d="M389.1,11.7a0.39,0.39,0,0,1,.38-0.39,0.38,0.38,0,0,1,.39.39v1a2.14,2.14,0,0,1,1.78-1.38,0.37,0.37,0,0,1,.38.39,0.38,0.38,0,0,1-.34.39,2.1,2.1,0,0,0-1.82,2.36v1.76a0.38,0.38,0,1,1-.77,0V11.7Z"/><path class="cls-6" d="M392.87,16a0.35,0.35,0,0,1-.14-0.28,0.33,0.33,0,0,1,.34-0.33,0.31,0.31,0,0,1,.19.06,2.9,2.9,0,0,0,1.64.55,0.92,0.92,0,0,0,1.07-.82v0c0-.52-0.61-0.72-1.29-0.91S393,13.72,393,12.77v0a1.56,1.56,0,0,1,1.76-1.48,3.61,3.61,0,0,1,1.65.44,0.37,0.37,0,0,1,.19.32,0.33,0.33,0,0,1-.34.33,0.38,0.38,0,0,1-.17,0,2.79,2.79,0,0,0-1.35-.4,0.86,0.86,0,0,0-1,.75v0c0,0.49.64,0.68,1.33,0.89s1.66,0.55,1.66,1.48v0a1.63,1.63,0,0,1-1.84,1.55A3.58,3.58,0,0,1,392.87,16Z"/><line class="cls-9" x1="344.45" y1="106.73" x2="620.45" y2="106.73"/><line class="cls-9" x1="344.45" y1="73.67" x2="620.45" y2="73.67"/><rect class="cls-9" x="357.17" y="37.97" width="250.56" height="23.39"/><rect class="cls-2" x="483.36" y="37.97" width="124.37" height="23.39" transform="translate(1091.1 99.32) rotate(180)"/><path class="cls-6" d="M392.61,46.39A0.4,0.4,0,0,1,393,46h0.09a0.43,0.43,0,0,1,.37.21L396,50l2.5-3.76a0.42,0.42,0,0,1,.37-0.21h0.09a0.4,0.4,0,0,1,.39.39v6.29a0.4,0.4,0,0,1-.39.4,0.41,0.41,0,0,1-.4-0.4V47.46l-2.24,3.29a0.39,0.39,0,0,1-.33.2,0.4,0.4,0,0,1-.34-0.2l-2.23-3.28v5.22a0.38,0.38,0,1,1-.77,0v-6.3Z"/><path class="cls-6" d="M401.06,54.5a0.35,0.35,0,0,1-.24-0.33,0.33,0.33,0,0,1,.33-0.33,0.59,0.59,0,0,1,.19,0,1.59,1.59,0,0,0,.56.09,1.16,1.16,0,0,0,1-.92l0-.08-2.16-4.58a0.53,0.53,0,0,1,0-.21,0.38,0.38,0,0,1,.39-0.38,0.41,0.41,0,0,1,.39.3l1.8,4.06,1.6-4.07a0.39,0.39,0,0,1,.37-0.29,0.38,0.38,0,0,1,.38.38,0.66,0.66,0,0,1,0,.19l-2,4.82c-0.45,1.07-.95,1.46-1.73,1.46A2.44,2.44,0,0,1,401.06,54.5Z"/><path class="cls-6" d="M410.16,46.43a0.4,0.4,0,0,1,.39-0.4h2.23c1.58,0,2.62.84,2.62,2.22v0c0,1.51-1.26,2.29-2.75,2.29h-1.7v2.12a0.4,0.4,0,1,1-.79,0V46.43Zm2.52,3.41a1.66,1.66,0,0,0,1.92-1.54v0c0-1-.75-1.52-1.88-1.52h-1.77v3.08h1.73Z"/><path class="cls-6" d="M416.22,51.53v0c0-1.09.9-1.67,2.21-1.67a5.49,5.49,0,0,1,1.59.22V49.88a1.33,1.33,0,0,0-1.54-1.41,3.22,3.22,0,0,0-1.34.29l-0.14,0a0.34,0.34,0,0,1-.34-0.33,0.35,0.35,0,0,1,.21-0.32,4.08,4.08,0,0,1,1.69-.35,2.27,2.27,0,0,1,1.67.57,2,2,0,0,1,.53,1.51V52.7a0.36,0.36,0,0,1-.37.38,0.36,0.36,0,0,1-.37-0.36V52.25a2.26,2.26,0,0,1-1.87.89A1.74,1.74,0,0,1,416.22,51.53Zm3.81-.4v-0.5a5.38,5.38,0,0,0-1.52-.22c-1,0-1.51.42-1.51,1.07v0a1.14,1.14,0,0,0,1.3,1A1.56,1.56,0,0,0,420,51.13Z"/><path class="cls-6" d="M422.47,46.07a0.38,0.38,0,1,1,.77,0v6.62a0.38,0.38,0,0,1-.38.39,0.38,0.38,0,0,1-.39-0.39V46.07Z"/><path class="cls-6" d="M427.28,53.15a2.57,2.57,0,0,1-2.58-2.69v0a2.55,2.55,0,0,1,2.48-2.69,2.43,2.43,0,0,1,2.4,2.62,0.36,0.36,0,0,1-.36.36h-3.74a1.8,1.8,0,0,0,1.82,1.75,2.11,2.11,0,0,0,1.49-.6,0.33,0.33,0,0,1,.56.24,0.33,0.33,0,0,1-.12.25A2.63,2.63,0,0,1,427.28,53.15Zm1.53-3a1.7,1.7,0,0,0-1.65-1.76,1.78,1.78,0,0,0-1.68,1.76h3.33Z"/><path class="cls-6" d="M431.22,51.66V48.54H430.8a0.35,0.35,0,0,1-.34-0.34,0.34,0.34,0,0,1,.34-0.34h0.42V46.64a0.38,0.38,0,0,1,.38-0.39,0.4,0.4,0,0,1,.39.39v1.22h1.34a0.35,0.35,0,0,1,.35.34,0.35,0.35,0,0,1-.35.34H432v3a0.76,0.76,0,0,0,.87.86,2.17,2.17,0,0,0,.47-0.07,0.33,0.33,0,0,1,.33.33,0.32,0.32,0,0,1-.22.3,2,2,0,0,1-.76.14A1.32,1.32,0,0,1,431.22,51.66Z"/><path class="cls-6" d="M435.26,51.66V48.54h-0.42a0.35,0.35,0,0,1-.34-0.34,0.34,0.34,0,0,1,.34-0.34h0.42V46.64a0.38,0.38,0,0,1,.38-0.39,0.4,0.4,0,0,1,.39.39v1.22h1.34a0.35,0.35,0,0,1,.35.34,0.35,0.35,0,0,1-.35.34H436v3a0.76,0.76,0,0,0,.87.86,2.17,2.17,0,0,0,.47-0.07,0.33,0.33,0,0,1,.33.33,0.32,0.32,0,0,1-.22.3,2,2,0,0,1-.76.14A1.32,1.32,0,0,1,435.26,51.66Z"/><path class="cls-6" d="M441.13,53.15a2.57,2.57,0,0,1-2.58-2.69v0A2.55,2.55,0,0,1,441,47.75a2.43,2.43,0,0,1,2.4,2.62,0.36,0.36,0,0,1-.36.36h-3.74a1.8,1.8,0,0,0,1.82,1.75,2.11,2.11,0,0,0,1.49-.6,0.33,0.33,0,0,1,.56.24,0.33,0.33,0,0,1-.12.25A2.63,2.63,0,0,1,441.13,53.15Zm1.53-3A1.7,1.7,0,0,0,441,48.4a1.78,1.78,0,0,0-1.68,1.76h3.33Z"/><path class="cls-6" d="M444.52,52.48a0.35,0.35,0,0,1-.14-0.28,0.33,0.33,0,0,1,.34-0.33,0.31,0.31,0,0,1,.19.06,2.9,2.9,0,0,0,1.64.55,0.92,0.92,0,0,0,1.07-.82v0c0-.52-0.61-0.72-1.29-0.91s-1.71-.51-1.71-1.46v0a1.56,1.56,0,0,1,1.76-1.48,3.61,3.61,0,0,1,1.65.44,0.37,0.37,0,0,1,.19.32,0.33,0.33,0,0,1-.34.33,0.38,0.38,0,0,1-.17,0,2.79,2.79,0,0,0-1.35-.4,0.86,0.86,0,0,0-1,.75v0c0,0.49.64,0.68,1.33,0.89s1.66,0.55,1.66,1.48v0a1.63,1.63,0,0,1-1.84,1.55A3.58,3.58,0,0,1,444.52,52.48Z"/><path class="cls-6" d="M529.43,46.43a0.4,0.4,0,0,1,.39-0.4h2.59a2.57,2.57,0,0,1,1.83.62,1.56,1.56,0,0,1,.45,1.12v0a1.69,1.69,0,0,1-1.11,1.62,1.76,1.76,0,0,1,1.5,1.69v0c0,1.2-1,1.91-2.54,1.91h-2.72a0.4,0.4,0,0,1-.39-0.4v-6.2Zm2.85,2.72a1.35,1.35,0,0,0,1.61-1.25v0c0-.69-0.55-1.14-1.55-1.14h-2.13v2.41h2.07Zm0.28,3.17c1.06,0,1.72-.47,1.72-1.25v0c0-.76-0.64-1.2-1.86-1.2h-2.21v2.47h2.35Z"/><path class="cls-6" d="M536.52,48.2a0.39,0.39,0,0,1,.38-0.39,0.38,0.38,0,0,1,.39.39v1a2.14,2.14,0,0,1,1.78-1.38,0.37,0.37,0,0,1,.38.39,0.38,0.38,0,0,1-.34.39,2.1,2.1,0,0,0-1.82,2.36v1.76a0.38,0.38,0,1,1-.77,0V48.2Z"/><path class="cls-6" d="M540,50.47v0a2.69,2.69,0,0,1,5.39,0v0a2.68,2.68,0,0,1-2.71,2.7A2.65,2.65,0,0,1,540,50.47Zm4.6,0v0a2,2,0,0,0-1.92-2,1.91,1.91,0,0,0-1.89,2v0a1.94,1.94,0,0,0,1.91,2A1.91,1.91,0,0,0,544.63,50.47Z"/><path class="cls-6" d="M547.85,52.76l-1.57-4.37a0.7,0.7,0,0,1,0-.21,0.38,0.38,0,0,1,.39-0.37,0.4,0.4,0,0,1,.39.32l1.3,3.88,1.31-3.89a0.39,0.39,0,0,1,.38-0.31h0a0.41,0.41,0,0,1,.4.31l1.3,3.89,1.32-3.9a0.38,0.38,0,0,1,.37-0.3,0.37,0.37,0,0,1,.38.36,0.7,0.7,0,0,1,0,.21l-1.58,4.38a0.46,0.46,0,0,1-.42.35h0a0.43,0.43,0,0,1-.42-0.35L550,49l-1.3,3.77a0.43,0.43,0,0,1-.42.35h0A0.46,0.46,0,0,1,547.85,52.76Z"/><path class="cls-6" d="M554.77,52.48a0.35,0.35,0,0,1-.14-0.28,0.33,0.33,0,0,1,.34-0.33,0.31,0.31,0,0,1,.19.06,2.9,2.9,0,0,0,1.64.55,0.92,0.92,0,0,0,1.07-.82v0c0-.52-0.61-0.72-1.29-0.91s-1.71-.51-1.71-1.46v0a1.56,1.56,0,0,1,1.76-1.48,3.61,3.61,0,0,1,1.65.44,0.37,0.37,0,0,1,.19.32,0.33,0.33,0,0,1-.34.33,0.38,0.38,0,0,1-.17,0,2.79,2.79,0,0,0-1.35-.4,0.86,0.86,0,0,0-1,.75v0c0,0.49.64,0.68,1.33,0.89s1.66,0.55,1.66,1.48v0a1.63,1.63,0,0,1-1.84,1.55A3.58,3.58,0,0,1,554.77,52.48Z"/><path class="cls-6" d="M562.29,53.15a2.57,2.57,0,0,1-2.58-2.69v0a2.55,2.55,0,0,1,2.48-2.69,2.43,2.43,0,0,1,2.4,2.62,0.36,0.36,0,0,1-.36.36h-3.74a1.8,1.8,0,0,0,1.82,1.75,2.11,2.11,0,0,0,1.49-.6,0.33,0.33,0,0,1,.56.24,0.33,0.33,0,0,1-.12.25A2.63,2.63,0,0,1,562.29,53.15Zm1.53-3a1.7,1.7,0,0,0-1.65-1.76,1.78,1.78,0,0,0-1.68,1.76h3.33Z"/><path class="cls-6" d="M367.7,86.46a0.4,0.4,0,0,1,.39-0.4h2.59a2.57,2.57,0,0,1,1.83.62A1.56,1.56,0,0,1,373,87.8v0a1.69,1.69,0,0,1-1.11,1.62,1.76,1.76,0,0,1,1.5,1.69v0c0,1.2-1,1.91-2.54,1.91h-2.72a0.4,0.4,0,0,1-.39-0.4v-6.2Zm2.85,2.72a1.35,1.35,0,0,0,1.61-1.25v0c0-.69-0.55-1.14-1.55-1.14h-2.13v2.41h2.07Zm0.28,3.17c1.06,0,1.72-.47,1.72-1.25v0c0-.76-0.64-1.2-1.86-1.2h-2.21v2.47h2.35Z"/><path class="cls-6" d="M377,93.18a2.57,2.57,0,0,1-2.58-2.69v0a2.55,2.55,0,0,1,2.48-2.69,2.43,2.43,0,0,1,2.4,2.62,0.36,0.36,0,0,1-.36.36h-3.74a1.8,1.8,0,0,0,1.82,1.75,2.11,2.11,0,0,0,1.49-.6,0.33,0.33,0,0,1,.56.24,0.33,0.33,0,0,1-.12.25A2.63,2.63,0,0,1,377,93.18Zm1.53-3a1.7,1.7,0,0,0-1.65-1.76,1.78,1.78,0,0,0-1.68,1.76h3.33Z"/><path class="cls-6" d="M380.43,92.51a0.35,0.35,0,0,1-.14-0.28,0.33,0.33,0,0,1,.34-0.33,0.31,0.31,0,0,1,.19.06,2.9,2.9,0,0,0,1.64.55,0.92,0.92,0,0,0,1.07-.82v0c0-.52-0.61-0.72-1.29-0.91s-1.71-.51-1.71-1.46v0a1.56,1.56,0,0,1,1.76-1.48,3.61,3.61,0,0,1,1.65.44,0.37,0.37,0,0,1,.19.32,0.33,0.33,0,0,1-.34.33,0.38,0.38,0,0,1-.17,0,2.79,2.79,0,0,0-1.35-.4,0.86,0.86,0,0,0-1,.75v0c0,0.49.64,0.68,1.33,0.89s1.66,0.55,1.66,1.48v0a1.63,1.63,0,0,1-1.84,1.55A3.58,3.58,0,0,1,380.43,92.51Z"/><path class="cls-6" d="M385.86,91.69V88.57h-0.42a0.35,0.35,0,0,1-.34-0.34,0.34,0.34,0,0,1,.34-0.34h0.42V86.67a0.38,0.38,0,0,1,.38-0.39,0.4,0.4,0,0,1,.39.39v1.22H388a0.35,0.35,0,0,1,.35.34,0.35,0.35,0,0,1-.35.34h-1.34v3a0.76,0.76,0,0,0,.87.86,2.17,2.17,0,0,0,.47-0.07,0.33,0.33,0,0,1,.33.33,0.32,0.32,0,0,1-.22.3,2,2,0,0,1-.76.14A1.32,1.32,0,0,1,385.86,91.69Z"/><polygon class="cls-6" points="600.37 88.26 596.49 92.14 592.61 88.26 600.37 88.26"/><path class="cls-11" d="M370.73,142.19h42.79a0,0,0,0,1,0,0v31.58a0,0,0,0,1,0,0H370.73a4,4,0,0,1-4-4V146.21A4,4,0,0,1,370.73,142.19Z"/><rect class="cls-12" x="413.52" y="142.19" width="46.81" height="31.58"/><rect class="cls-13" x="460.33" y="142.19" width="46.81" height="31.58"/><rect class="cls-14" x="507.14" y="142.19" width="46.81" height="31.58"/><path class="cls-15" d="M553.95,142.19h42.79a4,4,0,0,1,4,4v23.53a4,4,0,0,1-4,4H553.95a0,0,0,0,1,0,0V142.19A0,0,0,0,1,553.95,142.19Z"/><path class="cls-6" d="M367.7,125a0.4,0.4,0,0,1,.39-0.39h0.09a0.43,0.43,0,0,1,.37.21l2.5,3.76,2.5-3.76a0.42,0.42,0,0,1,.37-0.21H374a0.4,0.4,0,0,1,.39.39v6.29a0.4,0.4,0,0,1-.39.4,0.41,0.41,0,0,1-.4-0.4v-5.22l-2.24,3.29a0.39,0.39,0,0,1-.33.2,0.4,0.4,0,0,1-.34-0.2l-2.23-3.28v5.22a0.38,0.38,0,1,1-.77,0V125Z"/><path class="cls-6" d="M376.15,133.11a0.35,0.35,0,0,1-.24-0.33,0.33,0.33,0,0,1,.33-0.33,0.59,0.59,0,0,1,.19,0,1.6,1.6,0,0,0,.56.09,1.16,1.16,0,0,0,1-.92l0-.08L375.91,127a0.53,0.53,0,0,1,0-.21,0.38,0.38,0,0,1,.39-0.38,0.41,0.41,0,0,1,.39.3l1.8,4.06,1.6-4.07a0.39,0.39,0,0,1,.37-0.29,0.38,0.38,0,0,1,.38.38,0.66,0.66,0,0,1,0,.19l-2,4.82c-0.45,1.07-.95,1.46-1.73,1.46A2.44,2.44,0,0,1,376.15,133.11Z"/><path class="cls-6" d="M385.25,125a0.4,0.4,0,0,1,.39-0.39h0.11a0.48,0.48,0,0,1,.4.23l4.25,5.42V125a0.38,0.38,0,1,1,.77,0v6.32a0.36,0.36,0,0,1-.36.37h0a0.54,0.54,0,0,1-.41-0.24L386,125.88v5.42a0.38,0.38,0,1,1-.77,0V125Z"/><path class="cls-6" d="M395.27,131.75a2.57,2.57,0,0,1-2.58-2.69v0a2.55,2.55,0,0,1,2.48-2.69,2.43,2.43,0,0,1,2.4,2.62,0.36,0.36,0,0,1-.36.36h-3.74a1.8,1.8,0,0,0,1.82,1.75,2.11,2.11,0,0,0,1.49-.6,0.33,0.33,0,0,1,.56.24,0.33,0.33,0,0,1-.12.25A2.63,2.63,0,0,1,395.27,131.75Zm1.53-3a1.7,1.7,0,0,0-1.65-1.76,1.78,1.78,0,0,0-1.68,1.76h3.33Z"/><path class="cls-6" d="M400,131.37L398.41,127a0.7,0.7,0,0,1,0-.21,0.38,0.38,0,0,1,.39-0.37,0.4,0.4,0,0,1,.39.32l1.3,3.88,1.31-3.89a0.39,0.39,0,0,1,.38-0.31h0a0.41,0.41,0,0,1,.4.31l1.3,3.89,1.32-3.9a0.38,0.38,0,0,1,.37-0.3,0.37,0.37,0,0,1,.38.36,0.7,0.7,0,0,1,0,.21l-1.58,4.38a0.46,0.46,0,0,1-.42.35h0a0.43,0.43,0,0,1-.42-0.35l-1.29-3.77-1.3,3.77a0.43,0.43,0,0,1-.42.35h0A0.46,0.46,0,0,1,400,131.37Z"/><path class="cls-6" d="M410.43,125a0.4,0.4,0,0,1,.39-0.4H413c1.58,0,2.62.84,2.62,2.22v0c0,1.51-1.26,2.29-2.75,2.29h-1.7v2.12a0.4,0.4,0,1,1-.79,0V125Zm2.52,3.41a1.66,1.66,0,0,0,1.92-1.54v0c0-1-.75-1.52-1.88-1.52h-1.77v3.08h1.73Z"/><path class="cls-6" d="M416.49,130.14v0c0-1.09.9-1.67,2.21-1.67a5.49,5.49,0,0,1,1.59.22v-0.18a1.33,1.33,0,0,0-1.54-1.41,3.22,3.22,0,0,0-1.34.29l-0.14,0a0.34,0.34,0,0,1-.34-0.33,0.35,0.35,0,0,1,.21-0.32,4.08,4.08,0,0,1,1.69-.35,2.27,2.27,0,0,1,1.67.57,2,2,0,0,1,.53,1.51v2.83a0.36,0.36,0,0,1-.37.38,0.36,0.36,0,0,1-.37-0.36v-0.47a2.26,2.26,0,0,1-1.87.89A1.74,1.74,0,0,1,416.49,130.14Zm3.81-.4v-0.5a5.38,5.38,0,0,0-1.52-.22c-1,0-1.51.42-1.51,1.07v0a1.14,1.14,0,0,0,1.3,1A1.56,1.56,0,0,0,420.29,129.74Z"/><path class="cls-6" d="M422.74,124.68a0.38,0.38,0,1,1,.77,0v6.62a0.38,0.38,0,0,1-.38.39,0.38,0.38,0,0,1-.39-0.39v-6.62Z"/><path class="cls-6" d="M427.55,131.75a2.57,2.57,0,0,1-2.58-2.69v0a2.55,2.55,0,0,1,2.48-2.69,2.43,2.43,0,0,1,2.4,2.62,0.36,0.36,0,0,1-.36.36h-3.74a1.8,1.8,0,0,0,1.82,1.75,2.11,2.11,0,0,0,1.49-.6,0.33,0.33,0,0,1,.56.24,0.33,0.33,0,0,1-.12.25A2.63,2.63,0,0,1,427.55,131.75Zm1.53-3a1.7,1.7,0,0,0-1.65-1.76,1.78,1.78,0,0,0-1.68,1.76h3.33Z"/><path class="cls-6" d="M431.49,130.27v-3.12h-0.42a0.35,0.35,0,0,1-.34-0.34,0.34,0.34,0,0,1,.34-0.34h0.42v-1.22a0.38,0.38,0,0,1,.38-0.39,0.4,0.4,0,0,1,.39.39v1.22h1.34a0.35,0.35,0,0,1,.35.34,0.35,0.35,0,0,1-.35.34h-1.34v3a0.76,0.76,0,0,0,.87.86,2.17,2.17,0,0,0,.47-0.07,0.33,0.33,0,0,1,.33.33,0.32,0.32,0,0,1-.22.3,2,2,0,0,1-.76.14A1.32,1.32,0,0,1,431.49,130.27Z"/><path class="cls-6" d="M435.53,130.27v-3.12h-0.42a0.35,0.35,0,0,1-.34-0.34,0.34,0.34,0,0,1,.34-0.34h0.42v-1.22a0.38,0.38,0,0,1,.38-0.39,0.4,0.4,0,0,1,.39.39v1.22h1.34a0.35,0.35,0,0,1,.35.34,0.35,0.35,0,0,1-.35.34H436.3v3a0.76,0.76,0,0,0,.87.86,2.17,2.17,0,0,0,.47-0.07,0.33,0.33,0,0,1,.33.33,0.32,0.32,0,0,1-.22.3,2,2,0,0,1-.76.14A1.32,1.32,0,0,1,435.53,130.27Z"/><path class="cls-6" d="M441.4,131.75a2.57,2.57,0,0,1-2.58-2.69v0a2.55,2.55,0,0,1,2.48-2.69,2.43,2.43,0,0,1,2.4,2.62,0.36,0.36,0,0,1-.36.36h-3.74a1.8,1.8,0,0,0,1.82,1.75,2.11,2.11,0,0,0,1.49-.6,0.33,0.33,0,0,1,.56.24,0.33,0.33,0,0,1-.12.25A2.63,2.63,0,0,1,441.4,131.75Zm1.53-3a1.7,1.7,0,0,0-1.65-1.76,1.78,1.78,0,0,0-1.68,1.76h3.33Z"/><path class="cls-16" d="M370.73,211.34h42.79a0,0,0,0,1,0,0v31.58a0,0,0,0,1,0,0H370.73a4,4,0,0,1-4-4V215.37A4,4,0,0,1,370.73,211.34Z"/><rect class="cls-17" x="413.52" y="211.34" width="46.81" height="31.58"/><rect class="cls-18" x="460.33" y="211.34" width="46.81" height="31.58"/><rect class="cls-19" x="507.14" y="211.34" width="46.81" height="31.58"/><path class="cls-20" d="M553.95,211.34h42.79a4,4,0,0,1,4,4V238.9a4,4,0,0,1-4,4H553.95a0,0,0,0,1,0,0V211.34A0,0,0,0,1,553.95,211.34Z"/><path class="cls-6" d="M367.39,197.31v0a3.53,3.53,0,0,1,3.54-3.62,3.62,3.62,0,0,1,2.5.91,0.44,0.44,0,0,1,.16.32,0.41,0.41,0,0,1-.4.39,0.47,0.47,0,0,1-.26-0.09,2.87,2.87,0,0,0-2-.8,2.74,2.74,0,0,0-2.71,2.87v0a2.76,2.76,0,0,0,2.71,2.89,2.86,2.86,0,0,0,2.08-.85,0.36,0.36,0,0,1,.25-0.11,0.39,0.39,0,0,1,.38.38,0.37,0.37,0,0,1-.13.28,3.59,3.59,0,0,1-2.6,1A3.49,3.49,0,0,1,367.39,197.31Z"/><path class="cls-6" d="M374.53,198.23v0a2.69,2.69,0,0,1,5.39,0v0a2.68,2.68,0,0,1-2.71,2.7A2.65,2.65,0,0,1,374.53,198.23Zm4.6,0v0a2,2,0,0,0-1.92-2,1.91,1.91,0,0,0-1.89,2v0a1.94,1.94,0,0,0,1.91,2A1.91,1.91,0,0,0,379.12,198.23Z"/><path class="cls-6" d="M381.38,193.84a0.38,0.38,0,1,1,.77,0v6.62a0.38,0.38,0,0,1-.38.39,0.38,0.38,0,0,1-.39-0.39v-6.62Z"/><path class="cls-6" d="M383.62,198.23v0a2.69,2.69,0,0,1,5.39,0v0a2.68,2.68,0,0,1-2.71,2.7A2.65,2.65,0,0,1,383.62,198.23Zm4.6,0v0a2,2,0,0,0-1.92-2,1.91,1.91,0,0,0-1.89,2v0a1.94,1.94,0,0,0,1.91,2A1.91,1.91,0,0,0,388.21,198.23Z"/><path class="cls-6" d="M390.4,196a0.39,0.39,0,0,1,.38-0.39,0.38,0.38,0,0,1,.39.39v1a2.14,2.14,0,0,1,1.78-1.38,0.37,0.37,0,0,1,.38.39,0.38,0.38,0,0,1-.34.39,2.1,2.1,0,0,0-1.82,2.36v1.76a0.38,0.38,0,1,1-.77,0V196Z"/><path class="cls-6" d="M394.74,196.31h-0.42A0.33,0.33,0,0,1,394,196a0.33,0.33,0,0,1,.33-0.33h0.42v-0.45a1.83,1.83,0,0,1,.45-1.33,1.53,1.53,0,0,1,1.11-.4,2.62,2.62,0,0,1,.61.06,0.34,0.34,0,0,1,.28.33,0.33,0.33,0,0,1-.37.33,2.63,2.63,0,0,0-.42,0,0.89,0.89,0,0,0-.9,1.1v0.42h1.34a0.33,0.33,0,0,1,.34.33,0.33,0.33,0,0,1-.34.33h-1.33v4.15a0.38,0.38,0,0,1-.38.39,0.39,0.39,0,0,1-.39-0.39v-4.15Z"/><path class="cls-6" d="M402.54,200.45a0.38,0.38,0,1,1-.76,0v-0.56a2,2,0,0,1-1.77,1,1.89,1.89,0,0,1-2-2.07V196a0.38,0.38,0,0,1,.38-0.39,0.39,0.39,0,0,1,.39.39v2.68a1.38,1.38,0,0,0,1.43,1.56,1.53,1.53,0,0,0,1.55-1.62V196a0.38,0.38,0,0,1,.38-0.39,0.38,0.38,0,0,1,.38.39v4.49Z"/><path class="cls-6" d="M404.35,193.84a0.38,0.38,0,1,1,.77,0v6.62a0.38,0.38,0,0,1-.38.39,0.38,0.38,0,0,1-.39-0.39v-6.62Z"/><path class="cls-21" d="M370.73,280.5h42.79a0,0,0,0,1,0,0v31.58a0,0,0,0,1,0,0H370.73a4,4,0,0,1-4-4V284.52A4,4,0,0,1,370.73,280.5Z"/><rect class="cls-22" x="413.52" y="280.5" width="46.81" height="31.58"/><rect class="cls-23" x="460.33" y="280.5" width="46.81" height="31.58"/><rect class="cls-24" x="507.14" y="280.5" width="46.81" height="31.58"/><path class="cls-25" d="M553.95,280.5h42.79a4,4,0,0,1,4,4v23.53a4,4,0,0,1-4,4H553.95a0,0,0,0,1,0,0V280.5A0,0,0,0,1,553.95,280.5Z"/><path class="cls-6" d="M367.45,269.11a0.35,0.35,0,0,1-.15-0.3,0.38,0.38,0,0,1,.38-0.39,0.35,0.35,0,0,1,.24.09,3.18,3.18,0,0,0,2.21.83,1.34,1.34,0,0,0,1.56-1.19v0c0-.65-0.35-1-1.82-1.33s-2.35-.87-2.35-2v0a2.07,2.07,0,0,1,2.3-1.91,3.57,3.57,0,0,1,2.23.69,0.4,0.4,0,0,1,.17.32,0.38,0.38,0,0,1-.38.38,0.37,0.37,0,0,1-.23-0.07,2.92,2.92,0,0,0-1.81-.61,1.29,1.29,0,0,0-1.49,1.13v0c0,0.66.36,1,1.9,1.36s2.28,0.91,2.28,2v0a2.1,2.1,0,0,1-2.39,2A4.09,4.09,0,0,1,367.45,269.11Z"/><path class="cls-6" d="M373.58,268.45v0c0-1.09.9-1.67,2.21-1.67a5.49,5.49,0,0,1,1.59.22V266.8a1.33,1.33,0,0,0-1.54-1.41,3.22,3.22,0,0,0-1.34.29l-0.14,0a0.34,0.34,0,0,1-.34-0.33,0.35,0.35,0,0,1,.21-0.32,4.08,4.08,0,0,1,1.69-.35,2.27,2.27,0,0,1,1.67.57,2,2,0,0,1,.53,1.51v2.83a0.36,0.36,0,0,1-.37.38,0.36,0.36,0,0,1-.37-0.36v-0.47a2.26,2.26,0,0,1-1.87.89A1.74,1.74,0,0,1,373.58,268.45Zm3.81-.4v-0.5a5.38,5.38,0,0,0-1.52-.22c-1,0-1.51.42-1.51,1.07v0a1.14,1.14,0,0,0,1.3,1A1.56,1.56,0,0,0,377.39,268.05Z"/><path class="cls-6" d="M379.83,263a0.38,0.38,0,1,1,.77,0v6.62a0.38,0.38,0,0,1-.38.39,0.38,0.38,0,0,1-.39-0.39V263Z"/><path class="cls-6" d="M382.39,265.12a0.39,0.39,0,0,1,.38-0.39,0.38,0.38,0,0,1,.39.39v0.53a1.89,1.89,0,0,1,1.67-1,1.76,1.76,0,0,1,1.66,1,2.06,2.06,0,0,1,1.82-1,1.86,1.86,0,0,1,1.92,2.08v2.86a0.38,0.38,0,1,1-.77,0v-2.68a1.33,1.33,0,0,0-1.34-1.56,1.44,1.44,0,0,0-1.42,1.6v2.64a0.38,0.38,0,1,1-.77,0v-2.7a1.33,1.33,0,0,0-1.33-1.54,1.5,1.5,0,0,0-1.44,1.63v2.61a0.38,0.38,0,0,1-.38.39,0.38,0.38,0,0,1-.39-0.39v-4.49Z"/><path class="cls-6" d="M391.58,267.39v0a2.69,2.69,0,0,1,5.39,0v0a2.68,2.68,0,0,1-2.71,2.7A2.65,2.65,0,0,1,391.58,267.39Zm4.6,0v0a2,2,0,0,0-1.92-2,1.91,1.91,0,0,0-1.89,2v0a1.94,1.94,0,0,0,1.91,2A1.91,1.91,0,0,0,396.17,267.39Z"/><path class="cls-6" d="M398.36,265.12a0.39,0.39,0,0,1,.38-0.39,0.38,0.38,0,0,1,.39.39v0.56a2,2,0,0,1,1.77-1,1.89,1.89,0,0,1,2,2.07v2.87a0.38,0.38,0,1,1-.77,0v-2.68a1.38,1.38,0,0,0-1.43-1.56,1.52,1.52,0,0,0-1.55,1.62v2.62a0.38,0.38,0,0,1-.38.39,0.38,0.38,0,0,1-.39-0.39v-4.49Z"/><path class="cls-6" d="M412.51,269.9L411.6,269a3.07,3.07,0,0,1-2.3,1.1,2,2,0,0,1-2.2-2v0a2.21,2.21,0,0,1,1.69-2,2.27,2.27,0,0,1-.7-1.54v0a1.71,1.71,0,0,1,1.85-1.66,1.62,1.62,0,0,1,1.7,1.58v0a2,2,0,0,1-1.65,1.82l1.6,1.63a9.18,9.18,0,0,0,.73-1.33,0.36,0.36,0,0,1,.68.15,0.45,0.45,0,0,1,0,.18,8.8,8.8,0,0,1-.87,1.49l1,1a0.42,0.42,0,0,1,.15.31,0.36,0.36,0,0,1-.37.37A0.43,0.43,0,0,1,412.51,269.9Zm-1.39-1.44-1.88-1.92a1.7,1.7,0,0,0-1.34,1.5v0a1.35,1.35,0,0,0,1.46,1.32A2.37,2.37,0,0,0,411.12,268.46Zm-0.22-4v0a1,1,0,0,0-1-1,1,1,0,0,0-1.06,1v0a1.85,1.85,0,0,0,.7,1.29C410.44,265.5,410.9,265.08,410.9,264.47Z"/><path class="cls-6" d="M417.36,269.11a0.35,0.35,0,0,1-.15-0.3,0.38,0.38,0,0,1,.38-0.39,0.35,0.35,0,0,1,.24.09,3.18,3.18,0,0,0,2.21.83,1.34,1.34,0,0,0,1.56-1.19v0c0-.65-0.35-1-1.82-1.33s-2.35-.87-2.35-2v0a2.07,2.07,0,0,1,2.3-1.91,3.57,3.57,0,0,1,2.23.69,0.4,0.4,0,0,1,.17.32,0.38,0.38,0,0,1-.38.38,0.37,0.37,0,0,1-.23-0.07,2.92,2.92,0,0,0-1.81-.61,1.29,1.29,0,0,0-1.49,1.13v0c0,0.66.36,1,1.9,1.36s2.28,0.91,2.28,2v0a2.1,2.1,0,0,1-2.39,2A4.09,4.09,0,0,1,417.36,269.11Z"/><path class="cls-6" d="M426.14,270.07a2.57,2.57,0,0,1-2.58-2.69v0a2.55,2.55,0,0,1,2.48-2.69,2.43,2.43,0,0,1,2.4,2.62,0.36,0.36,0,0,1-.36.36h-3.74a1.8,1.8,0,0,0,1.82,1.75,2.11,2.11,0,0,0,1.49-.6,0.33,0.33,0,0,1,.56.24,0.33,0.33,0,0,1-.12.25A2.63,2.63,0,0,1,426.14,270.07Zm1.53-3a1.7,1.7,0,0,0-1.65-1.76,1.78,1.78,0,0,0-1.68,1.76h3.33Z"/><path class="cls-6" d="M429.41,268.45v0c0-1.09.9-1.67,2.21-1.67a5.49,5.49,0,0,1,1.59.22V266.8a1.33,1.33,0,0,0-1.54-1.41,3.22,3.22,0,0,0-1.34.29l-0.14,0a0.34,0.34,0,0,1-.34-0.33,0.35,0.35,0,0,1,.21-0.32,4.08,4.08,0,0,1,1.69-.35,2.27,2.27,0,0,1,1.67.57,2,2,0,0,1,.53,1.51v2.83a0.36,0.36,0,0,1-.37.38,0.36,0.36,0,0,1-.37-0.36v-0.47a2.26,2.26,0,0,1-1.87.89A1.74,1.74,0,0,1,429.41,268.45Zm3.81-.4v-0.5a5.38,5.38,0,0,0-1.52-.22c-1,0-1.51.42-1.51,1.07v0a1.14,1.14,0,0,0,1.3,1A1.56,1.56,0,0,0,433.21,268.05Z"/><path class="cls-26" d="M370.73,349.66h42.79a0,0,0,0,1,0,0v31.58a0,0,0,0,1,0,0H370.73a4,4,0,0,1-4-4V353.68A4,4,0,0,1,370.73,349.66Z"/><rect class="cls-27" x="413.52" y="349.66" width="46.81" height="31.58"/><rect class="cls-28" x="460.33" y="349.66" width="46.81" height="31.58"/><rect class="cls-29" x="507.14" y="349.66" width="46.81" height="31.58"/><path class="cls-30" d="M553.95,349.66h42.79a4,4,0,0,1,4,4v23.53a4,4,0,0,1-4,4H553.95a0,0,0,0,1,0,0V349.66A0,0,0,0,1,553.95,349.66Z"/><path class="cls-6" d="M367.7,332.51a0.4,0.4,0,0,1,.39-0.4h2.23c1.58,0,2.62.84,2.62,2.22v0c0,1.51-1.26,2.29-2.75,2.29h-1.7v2.12a0.4,0.4,0,1,1-.79,0v-6.25Zm2.52,3.41a1.66,1.66,0,0,0,1.92-1.54v0c0-1-.75-1.52-1.88-1.52h-1.77v3.08h1.73Z"/><path class="cls-6" d="M373.76,337.61v0c0-1.09.9-1.67,2.21-1.67a5.49,5.49,0,0,1,1.59.22V336a1.33,1.33,0,0,0-1.54-1.41,3.22,3.22,0,0,0-1.34.29l-0.14,0a0.34,0.34,0,0,1-.34-0.33,0.35,0.35,0,0,1,.21-0.32,4.08,4.08,0,0,1,1.69-.35,2.27,2.27,0,0,1,1.67.57,2,2,0,0,1,.53,1.51v2.83a0.36,0.36,0,0,1-.37.38,0.36,0.36,0,0,1-.37-0.36v-0.47a2.26,2.26,0,0,1-1.87.89A1.74,1.74,0,0,1,373.76,337.61Zm3.81-.4v-0.5a5.38,5.38,0,0,0-1.52-.22c-1,0-1.51.42-1.51,1.07v0a1.14,1.14,0,0,0,1.3,1A1.56,1.56,0,0,0,377.56,337.21Z"/><path class="cls-6" d="M380,332.15a0.38,0.38,0,1,1,.77,0v6.62a0.38,0.38,0,0,1-.38.39,0.38,0.38,0,0,1-.39-0.39v-6.62Z"/><path class="cls-6" d="M384.83,339.23a2.57,2.57,0,0,1-2.58-2.69v0a2.55,2.55,0,0,1,2.48-2.69,2.43,2.43,0,0,1,2.4,2.62,0.36,0.36,0,0,1-.36.36H383a1.8,1.8,0,0,0,1.82,1.75,2.11,2.11,0,0,0,1.49-.6,0.33,0.33,0,0,1,.56.24,0.33,0.33,0,0,1-.12.25A2.63,2.63,0,0,1,384.83,339.23Zm1.53-3a1.7,1.7,0,0,0-1.65-1.76,1.78,1.78,0,0,0-1.68,1.76h3.33Z"/><path class="cls-6" d="M388.76,337.74v-3.12h-0.42a0.35,0.35,0,0,1-.34-0.34,0.34,0.34,0,0,1,.34-0.34h0.42v-1.22a0.38,0.38,0,0,1,.38-0.39,0.4,0.4,0,0,1,.39.39v1.22h1.34a0.35,0.35,0,0,1,.35.34,0.35,0.35,0,0,1-.35.34h-1.34v3a0.76,0.76,0,0,0,.87.86,2.17,2.17,0,0,0,.47-0.07,0.33,0.33,0,0,1,.33.33,0.32,0.32,0,0,1-.22.3,2,2,0,0,1-.76.14A1.32,1.32,0,0,1,388.76,337.74Z"/><path class="cls-6" d="M392.8,337.74v-3.12h-0.42a0.35,0.35,0,0,1-.34-0.34,0.34,0.34,0,0,1,.34-0.34h0.42v-1.22a0.38,0.38,0,0,1,.38-0.39,0.4,0.4,0,0,1,.39.39v1.22h1.34a0.35,0.35,0,0,1,.35.34,0.35,0.35,0,0,1-.35.34h-1.34v3a0.76,0.76,0,0,0,.87.86,2.17,2.17,0,0,0,.47-0.07,0.33,0.33,0,0,1,.33.33,0.32,0.32,0,0,1-.22.3,2,2,0,0,1-.76.14A1.32,1.32,0,0,1,392.8,337.74Z"/><path class="cls-6" d="M398.68,339.23a2.57,2.57,0,0,1-2.58-2.69v0a2.55,2.55,0,0,1,2.48-2.69,2.43,2.43,0,0,1,2.4,2.62,0.36,0.36,0,0,1-.36.36h-3.74a1.8,1.8,0,0,0,1.82,1.75,2.11,2.11,0,0,0,1.49-.6,0.33,0.33,0,0,1,.56.24,0.33,0.33,0,0,1-.12.25A2.63,2.63,0,0,1,398.68,339.23Zm1.53-3a1.7,1.7,0,0,0-1.65-1.76,1.78,1.78,0,0,0-1.68,1.76h3.33Z"/><path class="cls-6" d="M405.47,332.51a0.4,0.4,0,0,1,.39-0.4h2.23c1.58,0,2.62.84,2.62,2.22v0c0,1.51-1.26,2.29-2.75,2.29h-1.7v2.12a0.4,0.4,0,1,1-.79,0v-6.25Zm2.52,3.41a1.66,1.66,0,0,0,1.92-1.54v0c0-1-.75-1.52-1.88-1.52h-1.77v3.08H408Z"/><path class="cls-6" d="M412,334.28a0.39,0.39,0,0,1,.38-0.39,0.38,0.38,0,0,1,.39.39v1a2.14,2.14,0,0,1,1.78-1.38,0.37,0.37,0,0,1,.38.39,0.38,0.38,0,0,1-.34.39,2.1,2.1,0,0,0-1.82,2.36v1.76a0.38,0.38,0,1,1-.77,0v-4.49Z"/><path class="cls-6" d="M415.53,336.55v0a2.69,2.69,0,0,1,5.39,0v0a2.68,2.68,0,0,1-2.71,2.7A2.65,2.65,0,0,1,415.53,336.55Zm4.6,0v0a2,2,0,0,0-1.92-2,1.91,1.91,0,0,0-1.89,2v0a1.94,1.94,0,0,0,1.91,2A1.91,1.91,0,0,0,420.12,336.55Z"/><path class="cls-6" d="M421.74,340.73a0.35,0.35,0,0,1-.39-0.33,0.32,0.32,0,0,1,.32-0.32h0.17a0.55,0.55,0,0,0,.54-0.66v-5.15a0.39,0.39,0,0,1,.38-0.39,0.38,0.38,0,0,1,.39.39v5.13a1.15,1.15,0,0,1-1.23,1.33h-0.18Zm0.57-8.41a0.46,0.46,0,0,1,.91,0v0.13a0.46,0.46,0,0,1-.91,0v-0.13Z"/><path class="cls-6" d="M427.19,339.23a2.57,2.57,0,0,1-2.58-2.69v0a2.55,2.55,0,0,1,2.48-2.69,2.43,2.43,0,0,1,2.4,2.62,0.36,0.36,0,0,1-.36.36H425.4a1.8,1.8,0,0,0,1.82,1.75,2.11,2.11,0,0,0,1.49-.6,0.33,0.33,0,0,1,.56.24,0.33,0.33,0,0,1-.12.25A2.63,2.63,0,0,1,427.19,339.23Zm1.53-3a1.7,1.7,0,0,0-1.65-1.76,1.78,1.78,0,0,0-1.68,1.76h3.33Z"/><path class="cls-6" d="M430.54,336.55v0a2.69,2.69,0,0,1,4.55-1.95,0.36,0.36,0,0,1,.12.27,0.37,0.37,0,0,1-.37.37,0.4,0.4,0,0,1-.25-0.09,2,2,0,0,0-1.41-.62,1.91,1.91,0,0,0-1.85,2v0a1.93,1.93,0,0,0,1.9,2,2.06,2.06,0,0,0,1.44-.63,0.31,0.31,0,0,1,.22-0.1,0.36,0.36,0,0,1,.35.35,0.35,0.35,0,0,1-.1.24,2.6,2.6,0,0,1-1.95.83A2.65,2.65,0,0,1,430.54,336.55Z"/><path class="cls-6" d="M436.84,337.74v-3.12h-0.42a0.35,0.35,0,0,1-.34-0.34,0.34,0.34,0,0,1,.34-0.34h0.42v-1.22a0.38,0.38,0,0,1,.38-0.39,0.4,0.4,0,0,1,.39.39v1.22h1.34a0.35,0.35,0,0,1,.35.34,0.35,0.35,0,0,1-.35.34h-1.34v3a0.76,0.76,0,0,0,.87.86,2.17,2.17,0,0,0,.47-0.07,0.33,0.33,0,0,1,.33.33,0.32,0.32,0,0,1-.22.3,2,2,0,0,1-.76.14A1.32,1.32,0,0,1,436.84,337.74Z"/><path class="cls-6" d="M444.3,337.34h-0.8a0.34,0.34,0,0,1-.34-0.34,0.35,0.35,0,0,1,.34-0.35h0.92l0.37-2.12h-0.9a0.35,0.35,0,0,1-.35-0.34,0.35,0.35,0,0,1,.35-0.35h1l0.25-1.47a0.35,0.35,0,1,1,.69.11l-0.24,1.36h1.88l0.25-1.47a0.35,0.35,0,1,1,.69.11l-0.23,1.36H449a0.35,0.35,0,0,1,.35.34,0.35,0.35,0,0,1-.35.35h-0.91l-0.37,2.12h0.89a0.35,0.35,0,0,1,.35.34,0.35,0.35,0,0,1-.35.35h-1l-0.26,1.51a0.35,0.35,0,0,1-.35.31,0.35,0.35,0,0,1-.34-0.42l0.25-1.4H445l-0.26,1.51a0.36,0.36,0,0,1-.35.31,0.35,0.35,0,0,1-.34-0.42Zm2.7-.69,0.37-2.12h-1.87l-0.37,2.12H447Z"/><path class="cls-6" d="M451.54,332.85l-1,.32-0.17,0a0.34,0.34,0,0,1-.34-0.34,0.36,0.36,0,0,1,.28-0.34l1.15-.4a1.5,1.5,0,0,1,.43-0.09h0a0.38,0.38,0,0,1,.39.39v6.34a0.39,0.39,0,0,1-.39.4,0.4,0.4,0,0,1-.39-0.4v-5.91Z"/><path class="cls-31" d="M370.73,418.82h42.79a0,0,0,0,1,0,0V450.4a0,0,0,0,1,0,0H370.73a4,4,0,0,1-4-4V422.84A4,4,0,0,1,370.73,418.82Z"/><rect class="cls-32" x="413.52" y="418.82" width="46.81" height="31.58"/><rect class="cls-33" x="460.33" y="418.82" width="46.81" height="31.58"/><rect class="cls-34" x="507.14" y="418.82" width="46.81" height="31.58"/><path class="cls-35" d="M553.95,418.82h42.79a4,4,0,0,1,4,4v23.53a4,4,0,0,1-4,4H553.95a0,0,0,0,1,0,0V418.82A0,0,0,0,1,553.95,418.82Z"/><path class="cls-6" d="M367.7,401.67a0.4,0.4,0,0,1,.39-0.4h2.62a2.76,2.76,0,0,1,2,.7,1.93,1.93,0,0,1,.54,1.38v0a2,2,0,0,1-1.87,2l1.74,2.24a0.43,0.43,0,0,1,.13.29,0.41,0.41,0,0,1-.4.39,0.46,0.46,0,0,1-.37-0.21l-2-2.56h-2v2.37a0.4,0.4,0,1,1-.79,0v-6.25Zm2.94,3.17a1.55,1.55,0,0,0,1.8-1.44v0c0-.86-0.66-1.38-1.79-1.38h-2.16v2.84h2.15Z"/><path class="cls-6" d="M377,408.39a2.57,2.57,0,0,1-2.58-2.69v0a2.55,2.55,0,0,1,2.48-2.69,2.43,2.43,0,0,1,2.4,2.62,0.36,0.36,0,0,1-.36.36h-3.74a1.8,1.8,0,0,0,1.82,1.75,2.11,2.11,0,0,0,1.49-.6,0.33,0.33,0,0,1,.56.24,0.33,0.33,0,0,1-.12.25A2.63,2.63,0,0,1,377,408.39Zm1.53-3a1.7,1.7,0,0,0-1.65-1.76,1.78,1.78,0,0,0-1.68,1.76h3.33Z"/><path class="cls-6" d="M385.53,407.93a0.38,0.38,0,1,1-.77,0v-0.7a2.32,2.32,0,0,1-2,1.15,2.52,2.52,0,0,1-2.47-2.68v0a2.54,2.54,0,0,1,2.47-2.69,2.33,2.33,0,0,1,2,1.1v-2.78a0.38,0.38,0,0,1,.38-0.39,0.38,0.38,0,0,1,.39.39v6.62Zm-4.43-2.26v0a1.87,1.87,0,0,0,1.82,2,1.93,1.93,0,0,0,1.87-2v0a1.92,1.92,0,0,0-1.87-2A1.82,1.82,0,0,0,381.11,405.67Z"/><path class="cls-6" d="M392.17,407.93a0.38,0.38,0,1,1-.77,0v-0.7a2.32,2.32,0,0,1-2,1.15A2.52,2.52,0,0,1,387,405.7v0a2.54,2.54,0,0,1,2.47-2.69,2.33,2.33,0,0,1,2,1.1v-2.78a0.38,0.38,0,0,1,.38-0.39,0.38,0.38,0,0,1,.39.39v6.62Zm-4.43-2.26v0a1.87,1.87,0,0,0,1.82,2,1.93,1.93,0,0,0,1.87-2v0a1.92,1.92,0,0,0-1.87-2A1.82,1.82,0,0,0,387.75,405.67Z"/><path class="cls-6" d="M393.9,401.48a0.46,0.46,0,0,1,.91,0v0.13a0.46,0.46,0,0,1-.91,0v-0.13Zm0.07,2a0.39,0.39,0,0,1,.38-0.39,0.38,0.38,0,0,1,.39.39v4.49a0.38,0.38,0,0,1-.38.39,0.38,0.38,0,0,1-.39-0.39v-4.49Z"/><path class="cls-6" d="M396.25,407.72a0.35,0.35,0,0,1-.14-0.28,0.33,0.33,0,0,1,.34-0.33,0.31,0.31,0,0,1,.19.06,2.9,2.9,0,0,0,1.64.55,0.92,0.92,0,0,0,1.07-.82v0c0-.52-0.61-0.72-1.29-0.91s-1.71-.51-1.71-1.46v0a1.56,1.56,0,0,1,1.76-1.48,3.61,3.61,0,0,1,1.65.44,0.37,0.37,0,0,1,.19.32,0.33,0.33,0,0,1-.34.33,0.38,0.38,0,0,1-.17,0,2.79,2.79,0,0,0-1.35-.4,0.86,0.86,0,0,0-1,.75v0c0,0.49.64,0.68,1.33,0.89s1.66,0.55,1.66,1.48v0a1.63,1.63,0,0,1-1.84,1.55A3.58,3.58,0,0,1,396.25,407.72Z"/><path class="cls-6" d="M401.51,401.31a0.38,0.38,0,1,1,.77,0V404a2,2,0,0,1,1.77-1,1.89,1.89,0,0,1,2,2.07v2.87a0.38,0.38,0,1,1-.77,0v-2.68a1.38,1.38,0,0,0-1.43-1.56,1.52,1.52,0,0,0-1.55,1.62v2.62a0.38,0.38,0,0,1-.38.39,0.38,0.38,0,0,1-.39-0.39v-6.62Z"/><path class="cls-36" d="M370.73,488h42.79a0,0,0,0,1,0,0v31.58a0,0,0,0,1,0,0H370.73a4,4,0,0,1-4-4V492A4,4,0,0,1,370.73,488Z"/><rect class="cls-37" x="413.52" y="487.98" width="46.81" height="31.58"/><rect class="cls-38" x="460.33" y="487.98" width="46.81" height="31.58"/><rect class="cls-39" x="507.14" y="487.98" width="46.81" height="31.58"/><path class="cls-40" d="M553.95,488h42.79a4,4,0,0,1,4,4v23.53a4,4,0,0,1-4,4H553.95a0,0,0,0,1,0,0V488A0,0,0,0,1,553.95,488Z"/><path class="cls-6" d="M367.7,470.78a0.4,0.4,0,1,1,.79,0v5.92h3.63a0.37,0.37,0,0,1,.36.37,0.36,0.36,0,0,1-.36.36h-4a0.4,0.4,0,0,1-.39-0.4v-6.25Z"/><path class="cls-6" d="M373.76,470.64a0.46,0.46,0,0,1,.91,0v0.13a0.46,0.46,0,0,1-.91,0v-0.13Zm0.07,2a0.39,0.39,0,0,1,.38-0.39,0.38,0.38,0,0,1,.39.39v4.49a0.38,0.38,0,0,1-.38.39,0.38,0.38,0,0,1-.39-0.39V472.6Z"/><path class="cls-6" d="M376.52,478.43a0.36,0.36,0,0,1-.2-0.32,0.37,0.37,0,0,1,.35-0.34,0.32,0.32,0,0,1,.17,0,3.26,3.26,0,0,0,1.83.56,1.7,1.7,0,0,0,1.88-1.84v-0.61a2.45,2.45,0,0,1-2,1.09,2.39,2.39,0,0,1-2.43-2.42v0a2.45,2.45,0,0,1,4.45-1.4V472.6a0.38,0.38,0,0,1,.38-0.39,0.39,0.39,0,0,1,.39.39v3.93a2.49,2.49,0,0,1-.66,1.83,2.72,2.72,0,0,1-2,.69A4,4,0,0,1,376.52,478.43Zm4-3.84v0a1.81,1.81,0,0,0-1.9-1.75,1.71,1.71,0,0,0-1.79,1.74v0a1.75,1.75,0,0,0,1.79,1.76A1.82,1.82,0,0,0,380.56,474.6Z"/><path class="cls-6" d="M383,470.47a0.38,0.38,0,1,1,.77,0v2.69a2,2,0,0,1,1.77-1,1.89,1.89,0,0,1,2,2.07v2.87a0.38,0.38,0,1,1-.77,0v-2.68a1.38,1.38,0,0,0-1.43-1.56,1.52,1.52,0,0,0-1.55,1.62v2.62a0.38,0.38,0,0,1-.38.39,0.38,0.38,0,0,1-.39-0.39v-6.62Z"/><path class="cls-6" d="M389.46,476.06v-3.12H389a0.35,0.35,0,0,1-.34-0.34,0.34,0.34,0,0,1,.34-0.34h0.42V471a0.38,0.38,0,0,1,.38-0.39,0.4,0.4,0,0,1,.39.39v1.22h1.34a0.35,0.35,0,0,1,.35.34,0.35,0.35,0,0,1-.35.34h-1.34v3a0.76,0.76,0,0,0,.87.86,2.17,2.17,0,0,0,.47-0.07,0.33,0.33,0,0,1,.33.33,0.32,0.32,0,0,1-.22.3,2,2,0,0,1-.76.14A1.32,1.32,0,0,1,389.46,476.06Z"/><polygon class="cls-6" points="600.37 334.06 596.49 337.93 592.61 334.06 600.37 334.06"/><path class="cls-6" d="M546.89,338.59l2.84-6.21a0.52,0.52,0,0,1,.5-0.35h0a0.5,0.5,0,0,1,.49.35l2.84,6.2a0.53,0.53,0,0,1,.05.2,0.38,0.38,0,0,1-.38.38,0.43,0.43,0,0,1-.39-0.29l-0.73-1.61h-3.84l-0.73,1.63a0.39,0.39,0,0,1-.38.27,0.36,0.36,0,0,1-.36-0.36A0.45,0.45,0,0,1,546.89,338.59Zm4.95-2L550.23,333l-1.61,3.58h3.22Z"/><path class="cls-6" d="M554.51,336.55v0a2.69,2.69,0,0,1,4.55-1.95,0.36,0.36,0,0,1,.12.27,0.37,0.37,0,0,1-.37.37,0.4,0.4,0,0,1-.25-0.09,2,2,0,0,0-1.41-.62,1.91,1.91,0,0,0-1.85,2v0a1.93,1.93,0,0,0,1.9,2,2.06,2.06,0,0,0,1.44-.63,0.31,0.31,0,0,1,.22-0.1,0.36,0.36,0,0,1,.35.35,0.35,0.35,0,0,1-.1.24,2.6,2.6,0,0,1-1.95.83A2.65,2.65,0,0,1,554.51,336.55Z"/><path class="cls-6" d="M560.8,337.74v-3.12h-0.42a0.35,0.35,0,0,1-.34-0.34,0.34,0.34,0,0,1,.34-0.34h0.42v-1.22a0.38,0.38,0,0,1,.38-0.39,0.4,0.4,0,0,1,.39.39v1.22h1.34a0.35,0.35,0,0,1,.35.34,0.35,0.35,0,0,1-.35.34h-1.34v3a0.76,0.76,0,0,0,.87.86,2.17,2.17,0,0,0,.47-0.07,0.33,0.33,0,0,1,.33.33,0.32,0.32,0,0,1-.22.3,2,2,0,0,1-.76.14A1.32,1.32,0,0,1,560.8,337.74Z"/><path class="cls-6" d="M564.57,332.32a0.46,0.46,0,0,1,.91,0v0.13a0.46,0.46,0,0,1-.91,0v-0.13Zm0.07,2a0.39,0.39,0,0,1,.38-0.39,0.38,0.38,0,0,1,.39.39v4.49a0.38,0.38,0,0,1-.38.39,0.38,0.38,0,0,1-.39-0.39v-4.49Z"/><path class="cls-6" d="M566.89,336.55v0a2.69,2.69,0,0,1,5.39,0v0a2.68,2.68,0,0,1-2.71,2.7A2.65,2.65,0,0,1,566.89,336.55Zm4.6,0v0a2,2,0,0,0-1.92-2,1.91,1.91,0,0,0-1.89,2v0a1.94,1.94,0,0,0,1.91,2A1.91,1.91,0,0,0,571.48,336.55Z"/><path class="cls-6" d="M573.66,334.28a0.39,0.39,0,0,1,.38-0.39,0.38,0.38,0,0,1,.39.39v0.56a2,2,0,0,1,1.77-1,1.89,1.89,0,0,1,2,2.07v2.87a0.38,0.38,0,1,1-.77,0v-2.68a1.38,1.38,0,0,0-1.43-1.56,1.52,1.52,0,0,0-1.55,1.62v2.62a0.38,0.38,0,0,1-.38.39,0.38,0.38,0,0,1-.39-0.39v-4.49Z"/><path class="cls-6" d="M579.55,338.56a0.35,0.35,0,0,1-.14-0.28,0.33,0.33,0,0,1,.34-0.33,0.31,0.31,0,0,1,.19.06,2.9,2.9,0,0,0,1.64.55,0.92,0.92,0,0,0,1.07-.82v0c0-.52-0.61-0.72-1.29-0.91s-1.71-.51-1.71-1.46v0a1.56,1.56,0,0,1,1.76-1.48,3.61,3.61,0,0,1,1.65.44,0.37,0.37,0,0,1,.19.32,0.33,0.33,0,0,1-.34.33,0.38,0.38,0,0,1-.17,0,2.79,2.79,0,0,0-1.35-.4,0.86,0.86,0,0,0-1,.75v0c0,0.49.64,0.68,1.33,0.89s1.66,0.55,1.66,1.48v0a1.63,1.63,0,0,1-1.84,1.55A3.58,3.58,0,0,1,579.55,338.56Z"/><rect class="cls-41" x="449.01" y="206.77" width="69.44" height="40.73" rx="5.66" ry="5.66"/><path class="cls-42" d="M460.06,229.45h-0.8a0.34,0.34,0,0,1-.34-0.34,0.35,0.35,0,0,1,.34-0.35h0.92l0.37-2.12h-0.9a0.35,0.35,0,0,1-.35-0.34,0.35,0.35,0,0,1,.35-0.35h1l0.25-1.47a0.35,0.35,0,1,1,.69.11L461.37,226h1.88l0.25-1.47a0.35,0.35,0,1,1,.69.11L464,226h0.79a0.35,0.35,0,0,1,.35.34,0.35,0.35,0,0,1-.35.35h-0.91l-0.37,2.12h0.89a0.35,0.35,0,0,1,.35.34,0.35,0.35,0,0,1-.35.35h-1L463.08,231a0.35,0.35,0,0,1-.35.31,0.35,0.35,0,0,1-.34-0.42l0.25-1.4h-1.88L460.51,231a0.36,0.36,0,0,1-.35.31,0.35,0.35,0,0,1-.34-0.42Zm2.7-.69,0.37-2.12h-1.87l-0.37,2.12h1.87Z"/><path class="cls-42" d="M466.13,227.74v0c0-2,1.17-3.62,3-3.62s2.94,1.64,2.94,3.6v0c0,2-1.16,3.62-3,3.62S466.13,229.7,466.13,227.74Zm5.09,0v0c0-1.53-.84-2.9-2.14-2.9s-2.13,1.34-2.13,2.88v0c0,1.53.84,2.9,2.15,2.9S471.21,229.27,471.21,227.74Z"/><path class="cls-42" d="M473.28,227.74v0c0-2,1.17-3.62,3-3.62s2.94,1.64,2.94,3.6v0c0,2-1.16,3.62-3,3.62S473.28,229.7,473.28,227.74Zm5.09,0v0c0-1.53-.84-2.9-2.14-2.9s-2.13,1.34-2.13,2.88v0c0,1.53.84,2.9,2.15,2.9S478.36,229.27,478.36,227.74Z"/><path class="cls-42" d="M480.8,224.62a0.4,0.4,0,0,1,.39-0.4h2a3.49,3.49,0,0,1,3.72,3.48v0a3.5,3.5,0,0,1-3.72,3.5h-2a0.4,0.4,0,0,1-.39-0.4v-6.2Zm2.43,5.87a2.71,2.71,0,0,0,2.9-2.75v0a2.72,2.72,0,0,0-2.9-2.77h-1.64v5.54h1.64Z"/><path class="cls-42" d="M488.3,230.28a0.43,0.43,0,0,1-.13-0.28,0.4,0.4,0,0,1,.39-0.39,0.41,0.41,0,0,1,.29.12,2.4,2.4,0,0,0,1.9.89,1.41,1.41,0,0,0,1.53-1.36v0c0-.87-0.81-1.35-2-1.35h-0.25a0.35,0.35,0,0,1-.35-0.34,0.44,0.44,0,0,1,.16-0.31l2-2.31h-3.1a0.36,0.36,0,0,1-.37-0.35,0.37,0.37,0,0,1,.37-0.36h3.82a0.35,0.35,0,0,1,.38.34,0.56,0.56,0,0,1-.19.39l-2.06,2.29c1.22,0.1,2.31.69,2.31,2v0a2.17,2.17,0,0,1-2.34,2.11A3.15,3.15,0,0,1,488.3,230.28Z"/><path class="cls-42" d="M494.44,227.74v0A3.53,3.53,0,0,1,498,224.1a3.62,3.62,0,0,1,2.5.91,0.44,0.44,0,0,1,.16.32,0.41,0.41,0,0,1-.4.39,0.47,0.47,0,0,1-.26-0.09,2.87,2.87,0,0,0-2-.8,2.74,2.74,0,0,0-2.71,2.87v0a2.76,2.76,0,0,0,2.71,2.89,2.86,2.86,0,0,0,2.08-.85,0.36,0.36,0,0,1,.25-0.11,0.39,0.39,0,0,1,.38.38,0.37,0.37,0,0,1-.13.28,3.59,3.59,0,0,1-2.6,1A3.49,3.49,0,0,1,494.44,227.74Z"/><path class="cls-42" d="M502.13,224.62a0.4,0.4,0,0,1,.39-0.4h2a3.49,3.49,0,0,1,3.72,3.48v0a3.5,3.5,0,0,1-3.72,3.5h-2a0.4,0.4,0,0,1-.39-0.4v-6.2Zm2.43,5.87a2.71,2.71,0,0,0,2.9-2.75v0a2.72,2.72,0,0,0-2.9-2.77h-1.64v5.54h1.64Z"/><rect class="cls-2" x="449.01" y="344.66" width="151.74" height="55.49"/><path class="cls-1" d="M601.26,400.65H448.51V344.16H601.26v56.49Zm-151.74-1H600.26V345.16H449.51v54.49Z"/><path class="cls-6" d="M461,360.63v0a3.57,3.57,0,1,1,7.14,0v0A3.57,3.57,0,1,1,461,360.63Zm6.32,0v0a2.78,2.78,0,0,0-2.76-2.89,2.75,2.75,0,0,0-2.74,2.87v0a2.78,2.78,0,0,0,2.76,2.89A2.75,2.75,0,0,0,467.32,360.63Z"/><path class="cls-6" d="M469.69,359.28a0.38,0.38,0,1,1,.77,0V360a2.32,2.32,0,0,1,2-1.15,2.52,2.52,0,0,1,2.47,2.68v0a2.53,2.53,0,0,1-2.47,2.69,2.33,2.33,0,0,1-2-1.1v2.25a0.38,0.38,0,0,1-.38.39,0.38,0.38,0,0,1-.39-0.39v-6.09Zm4.43,2.26v0a1.86,1.86,0,0,0-1.82-2,1.93,1.93,0,0,0-1.87,2v0a1.92,1.92,0,0,0,1.87,2A1.82,1.82,0,0,0,474.11,361.54Z"/><path class="cls-6" d="M478.58,364.23a2.57,2.57,0,0,1-2.58-2.69v0a2.55,2.55,0,0,1,2.48-2.69,2.43,2.43,0,0,1,2.4,2.62,0.36,0.36,0,0,1-.36.36h-3.74a1.8,1.8,0,0,0,1.82,1.75,2.11,2.11,0,0,0,1.49-.6,0.33,0.33,0,0,1,.56.24,0.33,0.33,0,0,1-.12.25A2.63,2.63,0,0,1,478.58,364.23Zm1.53-3a1.7,1.7,0,0,0-1.65-1.76,1.78,1.78,0,0,0-1.68,1.76h3.33Z"/><path class="cls-6" d="M482.25,359.28a0.39,0.39,0,0,1,.38-0.39,0.38,0.38,0,0,1,.39.39v0.56a2,2,0,0,1,1.77-1,1.89,1.89,0,0,1,2,2.07v2.87a0.38,0.38,0,1,1-.77,0v-2.68a1.38,1.38,0,0,0-1.43-1.56,1.52,1.52,0,0,0-1.55,1.62v2.62a0.38,0.38,0,0,1-.38.39,0.38,0.38,0,0,1-.39-0.39v-4.49Z"/><path class="cls-6" d="M491.41,357.32a0.46,0.46,0,0,1,.91,0v0.13a0.46,0.46,0,0,1-.91,0v-0.13Zm0.07,2a0.39,0.39,0,0,1,.38-0.39,0.38,0.38,0,0,1,.39.39v4.49a0.38,0.38,0,0,1-.38.39,0.38,0.38,0,0,1-.39-0.39v-4.49Z"/><path class="cls-6" d="M494,359.28a0.39,0.39,0,0,1,.38-0.39,0.38,0.38,0,0,1,.39.39v0.56a2,2,0,0,1,1.77-1,1.89,1.89,0,0,1,2,2.07v2.87a0.38,0.38,0,1,1-.77,0v-2.68a1.38,1.38,0,0,0-1.43-1.56,1.52,1.52,0,0,0-1.55,1.62v2.62a0.38,0.38,0,0,1-.38.39,0.38,0.38,0,0,1-.39-0.39v-4.49Z"/><path class="cls-6" d="M503.47,362.74v-3.12H503a0.35,0.35,0,0,1-.34-0.34,0.34,0.34,0,0,1,.34-0.34h0.42v-1.22a0.38,0.38,0,0,1,.38-0.39,0.4,0.4,0,0,1,.39.39v1.22h1.34a0.35,0.35,0,0,1,.35.34,0.35,0.35,0,0,1-.35.34h-1.34v3a0.76,0.76,0,0,0,.87.86,2.17,2.17,0,0,0,.47-0.07,0.33,0.33,0,0,1,.33.33,0.32,0.32,0,0,1-.22.3,2,2,0,0,1-.76.14A1.32,1.32,0,0,1,503.47,362.74Z"/><path class="cls-6" d="M507.23,357.15a0.38,0.38,0,1,1,.77,0v2.69a2,2,0,0,1,1.77-1,1.89,1.89,0,0,1,2,2.07v2.87a0.38,0.38,0,1,1-.77,0v-2.68a1.38,1.38,0,0,0-1.43-1.56,1.52,1.52,0,0,0-1.55,1.62v2.62a0.38,0.38,0,0,1-.38.39,0.38,0.38,0,0,1-.39-0.39v-6.62Z"/><path class="cls-6" d="M515.65,364.23a2.57,2.57,0,0,1-2.58-2.69v0a2.55,2.55,0,0,1,2.48-2.69,2.43,2.43,0,0,1,2.4,2.62,0.36,0.36,0,0,1-.36.36h-3.74a1.8,1.8,0,0,0,1.82,1.75,2.11,2.11,0,0,0,1.49-.6,0.33,0.33,0,0,1,.56.24,0.33,0.33,0,0,1-.12.25A2.63,2.63,0,0,1,515.65,364.23Zm1.53-3a1.7,1.7,0,0,0-1.65-1.76,1.78,1.78,0,0,0-1.68,1.76h3.33Z"/><path class="cls-6" d="M522.14,360.63v0a3.51,3.51,0,0,1,3.51-3.62,3.73,3.73,0,0,1,2.39.75,0.4,0.4,0,0,1-.23.72,0.42,0.42,0,0,1-.25-0.1,3,3,0,0,0-1.94-.64,2.73,2.73,0,0,0-2.66,2.87v0a2.7,2.7,0,0,0,2.77,2.91,3.29,3.29,0,0,0,2-.7v-1.74h-1.88a0.36,0.36,0,0,1,0-.71h2.25a0.4,0.4,0,0,1,.39.4v2.13a0.56,0.56,0,0,1-.27.48,4.26,4.26,0,0,1-2.54.85A3.43,3.43,0,0,1,522.14,360.63Z"/><path class="cls-6" d="M532.41,364.23a2.57,2.57,0,0,1-2.58-2.69v0a2.55,2.55,0,0,1,2.48-2.69,2.43,2.43,0,0,1,2.4,2.62,0.36,0.36,0,0,1-.36.36h-3.74a1.8,1.8,0,0,0,1.82,1.75,2.11,2.11,0,0,0,1.49-.6,0.33,0.33,0,0,1,.56.24,0.33,0.33,0,0,1-.12.25A2.63,2.63,0,0,1,532.41,364.23Zm1.53-3a1.7,1.7,0,0,0-1.65-1.76,1.78,1.78,0,0,0-1.68,1.76h3.33Z"/><path class="cls-6" d="M536.07,359.28a0.39,0.39,0,0,1,.38-0.39,0.38,0.38,0,0,1,.39.39v0.56a2,2,0,0,1,1.77-1,1.89,1.89,0,0,1,2,2.07v2.87a0.38,0.38,0,1,1-.77,0v-2.68a1.38,1.38,0,0,0-1.43-1.56,1.52,1.52,0,0,0-1.55,1.62v2.62a0.38,0.38,0,0,1-.38.39,0.38,0.38,0,0,1-.39-0.39v-4.49Z"/><path class="cls-6" d="M544.49,364.23a2.57,2.57,0,0,1-2.58-2.69v0a2.55,2.55,0,0,1,2.48-2.69,2.43,2.43,0,0,1,2.4,2.62,0.36,0.36,0,0,1-.36.36h-3.74a1.8,1.8,0,0,0,1.82,1.75A2.11,2.11,0,0,0,546,363a0.33,0.33,0,0,1,.56.24,0.33,0.33,0,0,1-.12.25A2.63,2.63,0,0,1,544.49,364.23Zm1.53-3a1.7,1.7,0,0,0-1.65-1.76,1.78,1.78,0,0,0-1.68,1.76H546Z"/><path class="cls-6" d="M548.15,359.28a0.39,0.39,0,0,1,.38-0.39,0.38,0.38,0,0,1,.39.39v1a2.14,2.14,0,0,1,1.78-1.38,0.37,0.37,0,0,1,.38.39,0.38,0.38,0,0,1-.34.39,2.1,2.1,0,0,0-1.82,2.36v1.76a0.38,0.38,0,1,1-.77,0v-4.49Z"/><path class="cls-6" d="M551.56,362.61v0c0-1.09.9-1.67,2.21-1.67a5.49,5.49,0,0,1,1.59.22V361a1.33,1.33,0,0,0-1.54-1.41,3.22,3.22,0,0,0-1.34.29l-0.14,0a0.34,0.34,0,0,1-.34-0.33,0.35,0.35,0,0,1,.21-0.32,4.08,4.08,0,0,1,1.69-.35,2.27,2.27,0,0,1,1.67.57,2,2,0,0,1,.53,1.51v2.83a0.36,0.36,0,0,1-.37.38,0.36,0.36,0,0,1-.37-0.36v-0.47a2.26,2.26,0,0,1-1.87.89A1.74,1.74,0,0,1,551.56,362.61Zm3.81-.4v-0.5a5.38,5.38,0,0,0-1.52-.22c-1,0-1.51.42-1.51,1.07v0a1.14,1.14,0,0,0,1.3,1A1.56,1.56,0,0,0,555.37,362.21Z"/><path class="cls-6" d="M558,362.74v-3.12h-0.42a0.35,0.35,0,0,1-.34-0.34,0.34,0.34,0,0,1,.34-0.34H558v-1.22a0.38,0.38,0,0,1,.38-0.39,0.4,0.4,0,0,1,.39.39v1.22h1.34a0.35,0.35,0,0,1,.35.34,0.35,0.35,0,0,1-.35.34h-1.34v3a0.76,0.76,0,0,0,.87.86,2.17,2.17,0,0,0,.47-0.07,0.33,0.33,0,0,1,.33.33,0.32,0.32,0,0,1-.22.3,2,2,0,0,1-.76.14A1.32,1.32,0,0,1,558,362.74Z"/><path class="cls-6" d="M561.26,361.55v0a2.69,2.69,0,0,1,5.39,0v0a2.68,2.68,0,0,1-2.71,2.7A2.65,2.65,0,0,1,561.26,361.55Zm4.6,0v0a2,2,0,0,0-1.92-2,1.91,1.91,0,0,0-1.89,2v0a1.94,1.94,0,0,0,1.91,2A1.91,1.91,0,0,0,565.86,361.55Z"/><path class="cls-6" d="M568,359.28a0.39,0.39,0,0,1,.38-0.39,0.38,0.38,0,0,1,.39.39v1a2.14,2.14,0,0,1,1.78-1.38,0.37,0.37,0,0,1,.38.39,0.38,0.38,0,0,1-.34.39,2.1,2.1,0,0,0-1.82,2.36v1.76a0.38,0.38,0,1,1-.77,0v-4.49Z"/><path class="cls-6" d="M460.89,385.59l2.84-6.21a0.52,0.52,0,0,1,.5-0.35h0a0.5,0.5,0,0,1,.49.35l2.84,6.2a0.53,0.53,0,0,1,.05.2,0.38,0.38,0,0,1-.38.38,0.43,0.43,0,0,1-.39-0.29l-0.73-1.61H462.3l-0.73,1.63a0.39,0.39,0,0,1-.38.27,0.36,0.36,0,0,1-.36-0.36A0.45,0.45,0,0,1,460.89,385.59Zm4.95-2L464.22,380l-1.61,3.58h3.22Z"/><path class="cls-6" d="M473.73,385.77a0.38,0.38,0,1,1-.77,0v-0.7a2.32,2.32,0,0,1-2,1.15,2.52,2.52,0,0,1-2.47-2.68v0a2.54,2.54,0,0,1,2.47-2.69,2.33,2.33,0,0,1,2,1.1v-2.78a0.38,0.38,0,0,1,.38-0.39,0.38,0.38,0,0,1,.39.39v6.62Zm-4.43-2.26v0a1.87,1.87,0,0,0,1.82,2,1.93,1.93,0,0,0,1.87-2v0a1.92,1.92,0,0,0-1.87-2A1.82,1.82,0,0,0,469.31,383.51Z"/><path class="cls-6" d="M480.37,385.77a0.38,0.38,0,1,1-.77,0v-0.7a2.32,2.32,0,0,1-2,1.15,2.52,2.52,0,0,1-2.47-2.68v0a2.54,2.54,0,0,1,2.47-2.69,2.33,2.33,0,0,1,2,1.1v-2.78a0.38,0.38,0,0,1,.38-0.39,0.38,0.38,0,0,1,.39.39v6.62Zm-4.43-2.26v0a1.87,1.87,0,0,0,1.82,2,1.93,1.93,0,0,0,1.87-2v0a1.92,1.92,0,0,0-1.87-2A1.82,1.82,0,0,0,475.95,383.51Z"/><path class="cls-6" d="M485.1,381.28a0.38,0.38,0,1,1,.77,0V382a2.32,2.32,0,0,1,2-1.15,2.52,2.52,0,0,1,2.47,2.68v0a2.53,2.53,0,0,1-2.47,2.69,2.33,2.33,0,0,1-2-1.1v2.25a0.38,0.38,0,0,1-.38.39,0.38,0.38,0,0,1-.39-0.39v-6.09Zm4.43,2.26v0a1.86,1.86,0,0,0-1.82-2,1.93,1.93,0,0,0-1.87,2v0a1.92,1.92,0,0,0,1.87,2A1.82,1.82,0,0,0,489.52,383.54Z"/><path class="cls-6" d="M491.35,384.61v0c0-1.09.9-1.67,2.21-1.67a5.49,5.49,0,0,1,1.59.22V383a1.33,1.33,0,0,0-1.54-1.41,3.22,3.22,0,0,0-1.34.29l-0.14,0a0.34,0.34,0,0,1-.34-0.33,0.35,0.35,0,0,1,.21-0.32,4.08,4.08,0,0,1,1.69-.35,2.27,2.27,0,0,1,1.67.57,2,2,0,0,1,.53,1.51v2.83a0.36,0.36,0,0,1-.37.38,0.36,0.36,0,0,1-.37-0.36v-0.47a2.26,2.26,0,0,1-1.87.89A1.74,1.74,0,0,1,491.35,384.61Zm3.81-.4v-0.5a5.38,5.38,0,0,0-1.52-.22c-1,0-1.51.42-1.51,1.07v0a1.14,1.14,0,0,0,1.3,1A1.56,1.56,0,0,0,495.15,384.21Z"/><path class="cls-6" d="M497.6,379.15a0.38,0.38,0,1,1,.77,0v6.62a0.38,0.38,0,0,1-.38.39,0.38,0.38,0,0,1-.39-0.39v-6.62Z"/><path class="cls-6" d="M502.41,386.23a2.57,2.57,0,0,1-2.58-2.69v0a2.55,2.55,0,0,1,2.48-2.69,2.43,2.43,0,0,1,2.4,2.62,0.36,0.36,0,0,1-.36.36h-3.74a1.8,1.8,0,0,0,1.82,1.75,2.11,2.11,0,0,0,1.49-.6,0.33,0.33,0,0,1,.56.24,0.33,0.33,0,0,1-.12.25A2.63,2.63,0,0,1,502.41,386.23Zm1.53-3a1.7,1.7,0,0,0-1.65-1.76,1.78,1.78,0,0,0-1.68,1.76h3.33Z"/><path class="cls-6" d="M506.35,384.74v-3.12h-0.42a0.35,0.35,0,0,1-.34-0.34,0.34,0.34,0,0,1,.34-0.34h0.42v-1.22a0.38,0.38,0,0,1,.38-0.39,0.4,0.4,0,0,1,.39.39v1.22h1.34a0.35,0.35,0,0,1,.35.34,0.35,0.35,0,0,1-.35.34h-1.34v3a0.76,0.76,0,0,0,.87.86,2.17,2.17,0,0,0,.47-0.07,0.33,0.33,0,0,1,.33.33,0.32,0.32,0,0,1-.22.3,2,2,0,0,1-.76.14A1.32,1.32,0,0,1,506.35,384.74Z"/><path class="cls-6" d="M510.38,384.74v-3.12H510a0.35,0.35,0,0,1-.34-0.34,0.34,0.34,0,0,1,.34-0.34h0.42v-1.22a0.38,0.38,0,0,1,.38-0.39,0.4,0.4,0,0,1,.39.39v1.22h1.34a0.35,0.35,0,0,1,.35.34,0.35,0.35,0,0,1-.35.34h-1.34v3a0.76,0.76,0,0,0,.87.86,2.17,2.17,0,0,0,.47-0.07,0.33,0.33,0,0,1,.33.33,0.32,0.32,0,0,1-.22.3,2,2,0,0,1-.76.14A1.32,1.32,0,0,1,510.38,384.74Z"/><path class="cls-6" d="M516.26,386.23a2.57,2.57,0,0,1-2.58-2.69v0a2.55,2.55,0,0,1,2.48-2.69,2.43,2.43,0,0,1,2.4,2.62,0.36,0.36,0,0,1-.36.36h-3.74a1.8,1.8,0,0,0,1.82,1.75,2.11,2.11,0,0,0,1.49-.6,0.33,0.33,0,0,1,.56.24,0.33,0.33,0,0,1-.12.25A2.63,2.63,0,0,1,516.26,386.23Zm1.53-3a1.7,1.7,0,0,0-1.65-1.76,1.78,1.78,0,0,0-1.68,1.76h3.33Z"/><path class="cls-6" d="M523.19,384.74v-3.12h-0.42a0.35,0.35,0,0,1-.34-0.34,0.34,0.34,0,0,1,.34-0.34h0.42v-1.22a0.38,0.38,0,0,1,.38-0.39,0.4,0.4,0,0,1,.39.39v1.22h1.34a0.35,0.35,0,0,1,.35.34,0.35,0.35,0,0,1-.35.34H524v3a0.76,0.76,0,0,0,.87.86,2.17,2.17,0,0,0,.47-0.07,0.33,0.33,0,0,1,.33.33,0.32,0.32,0,0,1-.22.3,2,2,0,0,1-.76.14A1.32,1.32,0,0,1,523.19,384.74Z"/><path class="cls-6" d="M526.5,383.55v0a2.69,2.69,0,0,1,5.39,0v0a2.68,2.68,0,0,1-2.71,2.7A2.65,2.65,0,0,1,526.5,383.55Zm4.6,0v0a2,2,0,0,0-1.92-2,1.91,1.91,0,0,0-1.89,2v0a1.94,1.94,0,0,0,1.91,2A1.91,1.91,0,0,0,531.09,383.55Z"/><path class="cls-6" d="M536.15,385.27A0.35,0.35,0,0,1,536,385a0.38,0.38,0,0,1,.38-0.39,0.35,0.35,0,0,1,.24.09,3.18,3.18,0,0,0,2.21.83,1.34,1.34,0,0,0,1.56-1.19v0c0-.65-0.35-1-1.82-1.33s-2.35-.87-2.35-2v0a2.07,2.07,0,0,1,2.3-1.91,3.57,3.57,0,0,1,2.23.69,0.4,0.4,0,0,1,.17.32,0.38,0.38,0,0,1-.38.38,0.37,0.37,0,0,1-.23-0.07,2.92,2.92,0,0,0-1.81-.61,1.29,1.29,0,0,0-1.49,1.13v0c0,0.66.36,1,1.9,1.36s2.28,0.91,2.28,2v0a2.1,2.1,0,0,1-2.39,2A4.09,4.09,0,0,1,536.15,385.27Z"/><path class="cls-6" d="M543.83,385.84l-1.57-4.37a0.7,0.7,0,0,1,0-.21,0.38,0.38,0,0,1,.39-0.37,0.4,0.4,0,0,1,.39.32l1.3,3.88,1.31-3.89a0.39,0.39,0,0,1,.38-0.31h0a0.41,0.41,0,0,1,.4.31l1.3,3.89,1.32-3.9a0.38,0.38,0,0,1,.37-0.3,0.37,0.37,0,0,1,.38.36,0.7,0.7,0,0,1,0,.21l-1.58,4.38a0.46,0.46,0,0,1-.42.35h0a0.43,0.43,0,0,1-.42-0.35L546,382.07l-1.3,3.77a0.43,0.43,0,0,1-.42.35h0A0.46,0.46,0,0,1,543.83,385.84Z"/><path class="cls-6" d="M550.6,384.61v0c0-1.09.9-1.67,2.21-1.67a5.49,5.49,0,0,1,1.59.22V383a1.33,1.33,0,0,0-1.54-1.41,3.22,3.22,0,0,0-1.34.29l-0.14,0a0.34,0.34,0,0,1-.34-0.33,0.35,0.35,0,0,1,.21-0.32,4.08,4.08,0,0,1,1.69-.35,2.27,2.27,0,0,1,1.67.57,2,2,0,0,1,.53,1.51v2.83a0.36,0.36,0,0,1-.37.38,0.36,0.36,0,0,1-.37-0.36v-0.47a2.26,2.26,0,0,1-1.87.89A1.74,1.74,0,0,1,550.6,384.61Zm3.81-.4v-0.5a5.38,5.38,0,0,0-1.52-.22c-1,0-1.51.42-1.51,1.07v0a1.14,1.14,0,0,0,1.3,1A1.56,1.56,0,0,0,554.41,384.21Z"/><path class="cls-6" d="M557,384.74v-3.12h-0.42a0.35,0.35,0,0,1-.34-0.34,0.34,0.34,0,0,1,.34-0.34H557v-1.22a0.38,0.38,0,0,1,.38-0.39,0.4,0.4,0,0,1,.39.39v1.22h1.34a0.35,0.35,0,0,1,.35.34,0.35,0.35,0,0,1-.35.34h-1.34v3a0.76,0.76,0,0,0,.87.86,2.17,2.17,0,0,0,.47-0.07,0.33,0.33,0,0,1,.33.33,0.32,0.32,0,0,1-.22.3,2,2,0,0,1-.76.14A1.32,1.32,0,0,1,557,384.74Z"/><path class="cls-6" d="M560.3,383.55v0a2.69,2.69,0,0,1,4.55-1.95,0.36,0.36,0,0,1,.12.27,0.37,0.37,0,0,1-.37.37,0.4,0.4,0,0,1-.25-0.09,2,2,0,0,0-1.41-.62,1.91,1.91,0,0,0-1.85,2v0a1.93,1.93,0,0,0,1.9,2,2.06,2.06,0,0,0,1.44-.63,0.31,0.31,0,0,1,.22-0.1,0.36,0.36,0,0,1,.35.35,0.35,0.35,0,0,1-.1.24,2.6,2.6,0,0,1-1.95.83A2.65,2.65,0,0,1,560.3,383.55Z"/><path class="cls-6" d="M566.33,379.15a0.38,0.38,0,1,1,.77,0v2.69a2,2,0,0,1,1.77-1,1.89,1.89,0,0,1,2,2.07v2.87a0.38,0.38,0,1,1-.77,0v-2.68a1.38,1.38,0,0,0-1.43-1.56,1.52,1.52,0,0,0-1.55,1.62v2.62a0.38,0.38,0,0,1-.38.39,0.38,0.38,0,0,1-.39-0.39v-6.62Z"/><path class="cls-6" d="M574.75,386.23a2.57,2.57,0,0,1-2.58-2.69v0a2.55,2.55,0,0,1,2.48-2.69,2.43,2.43,0,0,1,2.4,2.62,0.36,0.36,0,0,1-.36.36H573a1.8,1.8,0,0,0,1.82,1.75,2.11,2.11,0,0,0,1.49-.6,0.33,0.33,0,0,1,.56.24,0.33,0.33,0,0,1-.12.25A2.63,2.63,0,0,1,574.75,386.23Zm1.53-3a1.7,1.7,0,0,0-1.65-1.76,1.78,1.78,0,0,0-1.68,1.76h3.33Z"/><path class="cls-6" d="M578.14,385.56a0.35,0.35,0,0,1-.14-0.28,0.33,0.33,0,0,1,.34-0.33,0.31,0.31,0,0,1,.19.06,2.9,2.9,0,0,0,1.64.55,0.92,0.92,0,0,0,1.07-.82v0c0-.52-0.61-0.72-1.29-0.91s-1.71-.51-1.71-1.46v0a1.56,1.56,0,0,1,1.76-1.48,3.61,3.61,0,0,1,1.65.44,0.37,0.37,0,0,1,.19.32,0.33,0.33,0,0,1-.34.33,0.38,0.38,0,0,1-.17,0,2.79,2.79,0,0,0-1.35-.4,0.86,0.86,0,0,0-1,.75v0c0,0.49.64,0.68,1.33,0.89s1.66,0.55,1.66,1.48v0a1.63,1.63,0,0,1-1.84,1.55A3.58,3.58,0,0,1,578.14,385.56Z"/></svg>
