<?xml version="1.0" encoding="utf-8"?>
<!-- Generator: Adobe Illustrator 16.0.0, SVG Export Plug-In . SVG Version: 6.00 Build 0)  -->
<!DOCTYPE svg PUBLIC "-//W3C//DTD SVG 1.1//EN" "http://www.w3.org/Graphics/SVG/1.1/DTD/svg11.dtd">
<svg version="1.1" id="Layer_1" xmlns="http://www.w3.org/2000/svg" xmlns:xlink="http://www.w3.org/1999/xlink" x="0px" y="0px"
	 width="1400px" height="980px" viewBox="0 0 1400 980" enable-background="new 0 0 1400 980" xml:space="preserve">
<g>
	<g>
		<g>
			<g>
				<g>
					<g>
						<rect fill="#FFFFFF" width="1400" height="980"/>
					</g>
				</g>
			</g>
		</g>
	</g>
	<g>
		<g>
			<g>
				<g>
					<g>
						<g>
							<rect x="471.4" y="564.2" fill="#414042" width="74.8" height="309.6"/>
						</g>
					</g>
				</g>
			</g>
		</g>
		<g>
			<g>
				<g>
					<g>
						<g>
							<path d="M547.8,875.4h-77.9V562.7h77.9V875.4z M473,872.3h71.7V565.8H473V872.3z"/>
						</g>
					</g>
				</g>
			</g>
		</g>
	</g>
	<g>
		<g>
			<g>
				<g>
					<g>
						<g>
							<path fill="#6D6E71" d="M891.2,564.2H546.2v309.6h344.9c13.8,0,24.9-11.2,24.9-24.9V589.2
								C916.1,575.4,904.9,564.2,891.2,564.2z"/>
						</g>
					</g>
				</g>
			</g>
		</g>
		<g>
			<g>
				<g>
					<g>
						<g>
							<path d="M891.2,875.4H544.7V562.7h346.5c14.6,0,26.5,11.9,26.5,26.5v259.7C917.7,863.5,905.8,875.4,891.2,875.4z
								 M547.8,872.3h343.4c12.9,0,23.4-10.5,23.4-23.4V589.2c0-12.9-10.5-23.4-23.4-23.4H547.8V872.3z"/>
						</g>
					</g>
				</g>
			</g>
		</g>
	</g>
	<g>
		<g>
			<g>
				<g>
					<g>
						<g>
							<rect x="578.4" y="598.5" fill="#808285" width="305.5" height="241"/>
						</g>
					</g>
				</g>
			</g>
		</g>
		<g>
			<g>
				<g>
					<g>
						<g>
							<path d="M885.5,841.1H576.9V597h308.6V841.1z M580,838h302.3V600.1H580V838z"/>
						</g>
					</g>
				</g>
			</g>
		</g>
	</g>
	<g>
		<g>
			<g>
				<g>
					<g>
						<g>
							<path fill="#808285" d="M532.7,719c0,13.2-10.7,23.9-23.9,23.9c-13.2,0-23.9-10.7-23.9-23.9s10.7-23.9,23.9-23.9
								C522,695.1,532.7,705.8,532.7,719z"/>
						</g>
					</g>
				</g>
			</g>
		</g>
	</g>
	<g>
		<g>
			<g>
				<g>
					<g>
						<g>
							<path fill="#6D6E71" d="M520.3,719c0,6.3-5.1,11.4-11.4,11.4s-11.4-5.1-11.4-11.4c0-6.3,5.1-11.4,11.4-11.4
								S520.3,712.7,520.3,719z"/>
						</g>
					</g>
				</g>
			</g>
		</g>
		<g>
			<g>
				<g>
					<g>
						<g>
							<path d="M508.8,732c-7.2,0-13-5.8-13-13c0-7.2,5.8-13,13-13c7.2,0,13,5.8,13,13C521.8,726.2,516,732,508.8,732z M508.8,709.2
								c-5.4,0-9.9,4.4-9.9,9.9s4.4,9.9,9.9,9.9s9.9-4.4,9.9-9.9S514.3,709.2,508.8,709.2z"/>
						</g>
					</g>
				</g>
			</g>
		</g>
	</g>
	<g>
		<g>
			<g>
				<g>
					<g>
						<g>
							<path fill="#6D6E71" d="M991.1,588.6v-12.3c0-6.3-5.1-11.4-11.4-11.4s-11.4,5.1-11.4,11.4v12.3H991.1z"/>
						</g>
					</g>
				</g>
			</g>
		</g>
		<g>
			<g>
				<g>
					<g>
						<g>
							<path d="M992.6,590.1h-26v-13.9c0-7.2,5.8-13,13-13s13,5.8,13,13V590.1z M969.8,587h19.7v-10.7c0-5.4-4.4-9.9-9.9-9.9
								s-9.9,4.4-9.9,9.9V587z"/>
						</g>
					</g>
				</g>
			</g>
		</g>
	</g>
	<g>
		<g>
			<g>
				<g>
					<g>
						<g>
							<polygon fill="#414042" points="979.6,831.5 953.9,831.5 979.6,860.1 1005.4,831.5 							"/>
						</g>
					</g>
				</g>
			</g>
		</g>
		<g>
			<g>
				<g>
					<g>
						<g>
							<path d="M979.6,862.4l-29.2-32.5h58.4L979.6,862.4z M957.4,833l22.2,24.7l22.2-24.7H957.4z"/>
						</g>
					</g>
				</g>
			</g>
		</g>
	</g>
	<g>
		<g>
			<g>
				<g>
					<g>
						<g>
							<path d="M979.6,874.8c-0.9,0-1.6-0.7-1.6-1.6v-13.2c0-0.9,0.7-1.6,1.6-1.6c0.9,0,1.6,0.7,1.6,1.6v13.2
								C981.2,874.1,980.5,874.8,979.6,874.8z"/>
						</g>
					</g>
				</g>
			</g>
		</g>
	</g>
	<g>
		<g>
			<g>
				<g>
					<g>
						<g>
							<polygon fill="#6D6E71" points="1001.4,808.8 1001.1,780.3 1000.5,708.4 998.8,621.5 960.5,621.5 957.9,807.6 953.9,831.5 
								1005.4,831.5 							"/>
						</g>
					</g>
				</g>
			</g>
		</g>
		<g>
			<g>
				<g>
					<g>
						<g>
							<path d="M1007.2,833h-55.1l4.3-25.7L959,620h41.3l1.8,88.4l0.8,100.4L1007.2,833z M955.8,829.9h47.7l-3.7-20.9L999,708.4
								l-1.7-85.3h-35.2l-2.6,184.6L955.8,829.9z"/>
						</g>
					</g>
				</g>
			</g>
		</g>
	</g>
	<g>
		<g>
			<g>
				<g>
					<g>
						<g>
							<polygon fill="#414042" points="996.1,588.6 963.2,588.6 960.5,621.5 998.8,621.5 							"/>
						</g>
					</g>
				</g>
			</g>
		</g>
		<g>
			<g>
				<g>
					<g>
						<g>
							<path d="M1000.5,623.1h-41.6l2.9-36.1h35.8L1000.5,623.1z M962.2,620h34.9l-2.4-29.8h-30.1L962.2,620z"/>
						</g>
					</g>
				</g>
			</g>
		</g>
	</g>
	<g>
		<g>
			<g>
				<g>
					<g>
						<g>
							<path fill="#5A97A3" d="M979.6,425.7v-284c0-15.4-12.6-28.1-28.1-28.1H436c-15.4,0-28.1,12.6-28.1,28.1v284H979.6z"/>
						</g>
					</g>
				</g>
			</g>
		</g>
	</g>
	<g>
		<g>
			<g>
				<g>
					<g>
						<g>
							<rect x="407.9" y="425.7" fill="#F1F2F2" width="571.7" height="65.9"/>
						</g>
					</g>
				</g>
			</g>
		</g>
		<g>
			<g>
				<g>
					<g>
						<g>
							<path d="M979.6,493.1H407.9c-0.9,0-1.6-0.7-1.6-1.6v-65.9c0-0.9,0.7-1.6,1.6-1.6h571.7c0.9,0,1.6,0.7,1.6,1.6v65.9
								C981.2,492.4,980.5,493.1,979.6,493.1z M409.5,490h568.6v-62.8H409.5V490z"/>
						</g>
					</g>
				</g>
			</g>
		</g>
	</g>
	<g>
		<g>
			<g>
				<g>
					<g>
						<g>
							<rect x="677.8" y="442.6" fill="#D1D3D4" width="32" height="32"/>
						</g>
					</g>
				</g>
			</g>
		</g>
		<g>
			<g>
				<g>
					<g>
						<g>
							<path d="M709.8,476.2h-32c-0.9,0-1.6-0.7-1.6-1.6v-32c0-0.9,0.7-1.6,1.6-1.6h32c0.9,0,1.6,0.7,1.6,1.6v32
								C711.3,475.5,710.6,476.2,709.8,476.2z M679.3,473h28.9v-28.9h-28.9V473z"/>
						</g>
					</g>
				</g>
			</g>
		</g>
	</g>
	<g>
		<g>
			<g>
				<g>
					<g>
						<g>
							<rect x="621.1" y="491.6" fill="#FFFFFF" width="145.4" height="72.7"/>
						</g>
					</g>
				</g>
			</g>
		</g>
		<g>
			<g>
				<g>
					<g>
						<g>
							<path d="M768,565.8H619.5V490H768V565.8z M622.6,562.7h142.2v-69.6H622.6V562.7z"/>
						</g>
					</g>
				</g>
			</g>
		</g>
	</g>
	<g>
		<g>
			<g>
				<g>
					<g>
						<g>
							<path d="M756.8,460.2h-30.5c-0.9,0-1.6-0.7-1.6-1.6c0-0.9,0.7-1.6,1.6-1.6h30.5c0.9,0,1.6,0.7,1.6,1.6
								C758.4,459.5,757.7,460.2,756.8,460.2z"/>
						</g>
					</g>
				</g>
			</g>
		</g>
	</g>
	<g>
		<g>
			<g>
				<g>
					<g>
						<g>
							<path d="M661.2,460.2h-30.5c-0.9,0-1.6-0.7-1.6-1.6c0-0.9,0.7-1.6,1.6-1.6h30.5c0.9,0,1.6,0.7,1.6,1.6
								C662.8,459.5,662.1,460.2,661.2,460.2z"/>
						</g>
					</g>
				</g>
			</g>
		</g>
	</g>
	<g>
		<g>
			<g>
				<g>
					<g>
						<g>
							<rect x="492.3" y="588.4" fill="#6D6E71" width="33.1" height="90.9"/>
						</g>
					</g>
				</g>
			</g>
		</g>
	</g>
	<g>
		<g>
			<g>
				<g>
					<g>
						<g>
							<rect x="492.3" y="758.8" fill="#6D6E71" width="33.1" height="90.9"/>
						</g>
					</g>
				</g>
			</g>
		</g>
	</g>
	<g>
		<g>
			<g>
				<g>
					<g>
						<g>
							<g>
								<rect x="435" y="142.9" fill="#414042" width="517.5" height="25.8"/>
							</g>
						</g>
					</g>
				</g>
			</g>
		</g>
		<g>
			<g>
				<g>
					<g>
						<g>
							<g>
								<rect x="435" y="168.7" fill="#6D6E71" width="517.5" height="227.7"/>
							</g>
						</g>
					</g>
				</g>
			</g>
		</g>
	</g>
	<g>
		<g>
			<g>
				<g>
					<g>
						<g>
							<g>
								<rect x="465.1" y="204" fill="#58595B" width="72.8" height="206.8"/>
							</g>
						</g>
					</g>
				</g>
			</g>
		</g>
		<g>
			<g>
				<g>
					<g>
						<g>
							<g>
								<rect x="465.1" y="184.8" fill="#414042" width="72.8" height="19.2"/>
							</g>
						</g>
					</g>
				</g>
			</g>
		</g>
	</g>
	<g>
		<g>
			<g>
				<g>
					<g>
						<g>
							<g>
								<rect x="564.9" y="204" fill="#F1F2F2" width="230.9" height="206.8"/>
							</g>
						</g>
					</g>
				</g>
			</g>
		</g>
		<g>
			<g>
				<g>
					<g>
						<g>
							<g>
								<rect x="564.9" y="184.8" fill="#414042" width="230.9" height="19.2"/>
							</g>
						</g>
					</g>
				</g>
			</g>
		</g>
	</g>
	<g>
		<g>
			<g>
				<g>
					<g>
						<g>
							<g>
								<rect x="815.9" y="199.6" fill="#58595B" width="111" height="63.5"/>
							</g>
						</g>
					</g>
				</g>
			</g>
		</g>
		<g>
			<g>
				<g>
					<g>
						<g>
							<g>
								<rect x="815.9" y="184.8" fill="#414042" width="111" height="14.8"/>
							</g>
						</g>
					</g>
				</g>
			</g>
		</g>
	</g>
	<g>
		<g>
			<g>
				<g>
					<g>
						<g>
							<g>
								<rect x="815.9" y="304.9" fill="#58595B" width="111" height="63.5"/>
							</g>
						</g>
					</g>
				</g>
			</g>
		</g>
		<g>
			<g>
				<g>
					<g>
						<g>
							<g>
								<rect x="815.9" y="290" fill="#414042" width="111" height="14.8"/>
							</g>
						</g>
					</g>
				</g>
			</g>
		</g>
	</g>
	<g>
		<g>
			<g>
				<g>
					<g>
						<g>
							<g>
								<path d="M699.3,363.7h-37.9l-0.2-1.3c-3.4-17-27.6-37.6-27.8-37.8l-1.4-1.1l1.3-1.2c25.4-23.3,45.4-78.8,45.6-79.4l1.5-4.1
									l1.5,4.1c0.2,0.6,20.2,56.1,45.6,79.4l1.3,1.2l-1.4,1.1c-0.2,0.2-24.5,20.8-27.8,37.8L699.3,363.7z M663.9,360.6h32.9
									c3.9-15.6,22.1-32.7,27.3-37.2c-21.6-20.8-38.7-62.4-43.7-75.5c-5,13.1-22.1,54.7-43.7,75.5
									C641.8,327.9,660,345,663.9,360.6z"/>
							</g>
						</g>
					</g>
				</g>
			</g>
		</g>
		<g>
			<g>
				<g>
					<g>
						<g>
							<g>
								<path d="M680.3,324.4c-6.4,0-11.6-5.2-11.6-11.6c0-6.4,5.2-11.6,11.6-11.6c6.4,0,11.6,5.2,11.6,11.6
									C691.9,319.2,686.7,324.4,680.3,324.4z M680.3,304.3c-4.7,0-8.5,3.8-8.5,8.5c0,4.7,3.8,8.5,8.5,8.5c4.7,0,8.5-3.8,8.5-8.5
									C688.8,308.1,685,304.3,680.3,304.3z"/>
							</g>
						</g>
					</g>
				</g>
			</g>
		</g>
		<g>
			<g>
				<g>
					<g>
						<g>
							<g>
								<path d="M708.1,363.7h-55.6c-0.9,0-1.6-0.7-1.6-1.6c0-0.9,0.7-1.6,1.6-1.6h55.6c0.9,0,1.6,0.7,1.6,1.6
									C709.7,363,709,363.7,708.1,363.7z"/>
							</g>
						</g>
					</g>
				</g>
			</g>
		</g>
		<g>
			<g>
				<g>
					<g>
						<g>
							<g>
								<path d="M702.9,382.7h-45.1v-22.1h45.1V382.7z M660.9,379.5h38.9v-15.8h-38.9V379.5z"/>
							</g>
						</g>
					</g>
				</g>
			</g>
		</g>
		<g>
			<g>
				<g>
					<g>
						<g>
							<g>
								<path d="M680.3,285.2c-0.9,0-1.6-0.7-1.6-1.6v-55.1c0-0.9,0.7-1.6,1.6-1.6c0.9,0,1.6,0.7,1.6,1.6v55.1
									C681.9,284.5,681.2,285.2,680.3,285.2z"/>
							</g>
						</g>
					</g>
				</g>
			</g>
		</g>
	</g>
	<g>
		<g>
			<g>
				<g>
					<g>
						<g>
							<rect x="742.2" y="255.8" transform="matrix(0.7071 0.7071 -0.7071 0.7071 407.5663 -447.294)" width="3.1" height="25.1"/>
						</g>
					</g>
				</g>
			</g>
		</g>
	</g>
	<g>
		<g>
			<g>
				<g>
					<g>
						<g>
							<rect x="722.6" y="232.4" transform="matrix(0.7072 0.707 -0.707 0.7072 382.8726 -441.2902)" width="3.1" height="18.4"/>
						</g>
					</g>
				</g>
			</g>
		</g>
	</g>
	<g>
		<g>
			<g>
				<g>
					<g>
						<g>
							<rect x="604.4" y="266.8" transform="matrix(0.7071 0.7071 -0.7071 0.7071 370.4283 -357.6348)" width="25.1" height="3.1"/>
						</g>
					</g>
				</g>
			</g>
		</g>
	</g>
	<g>
		<g>
			<g>
				<g>
					<g>
						<g>
							<rect x="627.2" y="240" transform="matrix(0.707 0.7072 -0.7072 0.707 357.3093 -379.2924)" width="18.4" height="3.1"/>
						</g>
					</g>
				</g>
			</g>
		</g>
	</g>
	<g>
		<g>
			<g>
				<g>
					<g>
						<g>
							<g>
								<path d="M295.2,656H292V517.8c0-33.5,26.3-60.8,58.7-60.8h57.1v3.1h-57.1c-30.7,0-55.6,25.9-55.6,57.7V656z"/>
							</g>
						</g>
					</g>
				</g>
			</g>
		</g>
		<g>
			<g>
				<g>
					<g>
						<g>
							<g>
								<path d="M293.6,809.6c-26.7,0-48.5-21.8-48.5-48.5V703c0-26.7,21.8-48.5,48.5-48.5s48.5,21.7,48.5,48.5v58.1
									C342.1,787.8,320.3,809.6,293.6,809.6z M293.6,657.6c-25,0-45.4,20.3-45.4,45.4v58.1c0,25,20.4,45.4,45.4,45.4
									c25,0,45.4-20.4,45.4-45.4V703C339,678,318.6,657.6,293.6,657.6z"/>
							</g>
						</g>
					</g>
				</g>
			</g>
		</g>
		<g>
			<g>
				<g>
					<g>
						<g>
							<g>
								<path d="M293.6,720.6c-4.5,0-8.2-3.7-8.2-8.2v-34.7c0-4.5,3.7-8.2,8.2-8.2s8.2,3.7,8.2,8.2v34.7
									C301.8,716.9,298.1,720.6,293.6,720.6z M293.6,672.7c-2.8,0-5.1,2.3-5.1,5.1v34.7c0,2.8,2.3,5.1,5.1,5.1s5.1-2.3,5.1-5.1
									v-34.7C298.7,674.9,296.4,672.7,293.6,672.7z"/>
							</g>
						</g>
					</g>
				</g>
			</g>
		</g>
		<g>
			<g>
				<g>
					<g>
						<g>
							<g>
								<rect x="261" y="730.5" width="65.2" height="3.1"/>
							</g>
						</g>
					</g>
				</g>
			</g>
		</g>
		<g>
			<g>
				<g>
					<g>
						<g>
							<g>
								<rect x="277.3" y="745.9" width="32.5" height="3.1"/>
							</g>
						</g>
					</g>
				</g>
			</g>
		</g>
	</g>
	<g>
		<g>
			<g>
				<g>
					<g>
						<g>
							<path d="M420.1,604h-41.3v-41.3h41.3V604z M381.9,600.9H417v-35.1h-35.1V600.9z"/>
						</g>
					</g>
				</g>
			</g>
		</g>
	</g>
	<g>
		<g>
			<g>
				<g>
					<g>
						<g>
							<path d="M420.1,681h-41.3v-41.3h41.3V681z M381.9,677.9H417v-35.1h-35.1V677.9z"/>
						</g>
					</g>
				</g>
			</g>
		</g>
	</g>
	<g>
		<g>
			<g>
				<g>
					<g>
						<g>
							<g>
								<path d="M1093.8,830.4c-9.2,0-16.7-7.5-16.7-16.7v-12.5h33.3v12.5C1110.4,823,1102.9,830.4,1093.8,830.4z M1080.2,804.3v9.4
									c0,7.5,6.1,13.5,13.5,13.5c7.5,0,13.5-6.1,13.5-13.5v-9.4H1080.2z"/>
							</g>
						</g>
					</g>
				</g>
			</g>
		</g>
		<g>
			<g>
				<g>
					<g>
						<g>
							<g>
								<path d="M1110.4,804.3h-33.3V603.9h33.3V804.3z M1080.2,801.2h27.1V607h-27.1V801.2z"/>
							</g>
						</g>
					</g>
				</g>
			</g>
		</g>
	</g>
	<g>
		<g>
			<g>
				<g>
					<g>
						<g>
							<g>
								<path d="M1102.3,588.5h-17.1l8.6-17.6L1102.3,588.5z M1090.2,585.4h7.2l-3.6-7.4L1090.2,585.4z"/>
							</g>
						</g>
					</g>
				</g>
			</g>
		</g>
		<g>
			<g>
				<g>
					<g>
						<g>
							<g>
								<path d="M1111.3,607h-35.2l10.5-21.7h14.1L1111.3,607z M1081.2,603.9h25.2l-7.5-15.4h-10.2L1081.2,603.9z"/>
							</g>
						</g>
					</g>
				</g>
			</g>
		</g>
	</g>
	<g>
		<g>
			<g>
				<g>
					<g>
						<g>
							<path d="M1188.4,714.8h-65.8V480.2h65.8V714.8z M1125.7,711.6h59.5V483.3h-59.5V711.6z"/>
						</g>
					</g>
				</g>
			</g>
		</g>
	</g>
	<g>
		<g>
			<g>
				<g>
					<g>
						<g>
							<rect x="1127.5" y="509" width="15.1" height="3.1"/>
						</g>
					</g>
				</g>
			</g>
		</g>
	</g>
	<g>
		<g>
			<g>
				<g>
					<g>
						<g>
							<rect x="1127.5" y="530.1" width="15.1" height="3.1"/>
						</g>
					</g>
				</g>
			</g>
		</g>
	</g>
	<g>
		<g>
			<g>
				<g>
					<g>
						<g>
							<rect x="1127.5" y="551.1" width="15.1" height="3.1"/>
						</g>
					</g>
				</g>
			</g>
		</g>
	</g>
	<g>
		<g>
			<g>
				<g>
					<g>
						<g>
							<rect x="1127.5" y="572.1" width="15.1" height="3.1"/>
						</g>
					</g>
				</g>
			</g>
		</g>
	</g>
	<g>
		<g>
			<g>
				<g>
					<g>
						<g>
							<rect x="1124.2" y="593.2" width="15.1" height="3.1"/>
						</g>
					</g>
				</g>
			</g>
		</g>
	</g>
	<g>
		<g>
			<g>
				<g>
					<g>
						<g>
							<rect x="1124.2" y="614.2" width="15.1" height="3.1"/>
						</g>
					</g>
				</g>
			</g>
		</g>
	</g>
	<g>
		<g>
			<g>
				<g>
					<g>
						<g>
							<g>
								<g>
									<path fill="#FFFFFF" d="M1146.7,844.2c0,8.3,6.8,15.1,15.1,15.1c8.3,0,15.1-6.8,15.1-15.1v-11h-30.2V844.2z"/>
								</g>
							</g>
						</g>
					</g>
				</g>
				<g>
					<g>
						<g>
							<g>
								<g>
									<path d="M1161.8,860.8c-9.2,0-16.7-7.5-16.7-16.7v-12.5h33.3v12.5C1178.4,853.3,1171,860.8,1161.8,860.8z M1148.3,834.7
										v9.4c0,7.5,6.1,13.5,13.5,13.5c7.5,0,13.5-6.1,13.5-13.5v-9.4H1148.3z"/>
								</g>
							</g>
						</g>
					</g>
				</g>
			</g>
			<g>
				<g>
					<g>
						<g>
							<g>
								<g>
									<rect x="1146.7" y="635.9" fill="#FFFFFF" width="30.2" height="197.3"/>
								</g>
							</g>
						</g>
					</g>
				</g>
				<g>
					<g>
						<g>
							<g>
								<g>
									<path d="M1178.4,834.7h-33.3V634.3h33.3V834.7z M1148.3,831.6h27.1V637.4h-27.1V831.6z"/>
								</g>
							</g>
						</g>
					</g>
				</g>
			</g>
		</g>
		<g>
			<g>
				<g>
					<g>
						<g>
							<g>
								<g>
									<polygon fill="#FFFFFF" points="1161.8,604.8 1155.7,617.3 1167.9,617.3 									"/>
								</g>
							</g>
						</g>
					</g>
				</g>
				<g>
					<g>
						<g>
							<g>
								<g>
									<path d="M1170.4,618.9h-17.1l8.6-17.6L1170.4,618.9z M1158.2,615.8h7.2l-3.6-7.4L1158.2,615.8z"/>
								</g>
							</g>
						</g>
					</g>
				</g>
			</g>
			<g>
				<g>
					<g>
						<g>
							<g>
								<g>
									<polygon fill="#FFFFFF" points="1155.7,617.3 1146.7,635.9 1176.9,635.9 1167.9,617.3 									"/>
								</g>
							</g>
						</g>
					</g>
				</g>
				<g>
					<g>
						<g>
							<g>
								<g>
									<path d="M1179.4,637.4h-35.2l10.5-21.7h14.1L1179.4,637.4z M1149.2,634.3h25.2l-7.5-15.4h-10.2L1149.2,634.3z"/>
								</g>
							</g>
						</g>
					</g>
				</g>
			</g>
		</g>
	</g>
	<g>
		<g>
			<g>
				<g>
					<g>
						<g>
							<path fill="#FFFFFF" d="M1167,501.2c0,4.7-3.8,8.5-8.5,8.5c-4.7,0-8.5-3.8-8.5-8.5c0-4.7,3.8-8.5,8.5-8.5
								C1163.2,492.7,1167,496.5,1167,501.2z"/>
						</g>
					</g>
				</g>
			</g>
		</g>
		<g>
			<g>
				<g>
					<g>
						<g>
							<path d="M1158.5,511.3c-5.5,0-10.1-4.5-10.1-10.1c0-5.5,4.5-10.1,10.1-10.1c5.5,0,10.1,4.5,10.1,10.1
								C1168.6,506.8,1164,511.3,1158.5,511.3z M1158.5,494.3c-3.8,0-6.9,3.1-6.9,6.9c0,3.8,3.1,6.9,6.9,6.9c3.8,0,7-3.1,7-6.9
								C1165.4,497.4,1162.3,494.3,1158.5,494.3z"/>
						</g>
					</g>
				</g>
			</g>
		</g>
	</g>
	<g>
		<g>
			<g>
				<g>
					<g>
						<g>
							<g>
								<path fill="#FFFFFF" d="M1057.9,695.1v140.3c0,19.3,15.7,35,35,35h79.7c19.3,0,35-15.7,35-35V695.1H1057.9z"/>
							</g>
						</g>
					</g>
				</g>
			</g>
			<g>
				<g>
					<g>
						<g>
							<g>
								<path d="M1172.6,872h-79.7c-20.2,0-36.6-16.4-36.6-36.6V693.5h152.9v141.9C1209.2,855.6,1192.8,872,1172.6,872z
									 M1059.4,696.6v138.8c0,18.4,15,33.4,33.4,33.4h79.7c18.4,0,33.4-15,33.4-33.4V696.6H1059.4z"/>
							</g>
						</g>
					</g>
				</g>
			</g>
		</g>
		<g>
			<g>
				<g>
					<g>
						<g>
							<g>
								<path fill="#FFFFFF" d="M1190.1,789.4v46c0,9.7-7.8,17.5-17.5,17.5h-20.4"/>
							</g>
						</g>
					</g>
				</g>
			</g>
			<g>
				<g>
					<g>
						<g>
							<g>
								<path d="M1172.6,854.5h-20.4v-3.1h20.4c8.8,0,15.9-7.2,15.9-15.9v-46h3.1v46C1191.7,845.9,1183.1,854.5,1172.6,854.5z"/>
							</g>
						</g>
					</g>
				</g>
			</g>
		</g>
	</g>
	<g>
		<g>
			<g>
				<g>
					<g>
						<g>
							<g>
								<g>
									<rect x="109.1" y="575" fill="#FFFFFF" width="82.9" height="15.1"/>
								</g>
							</g>
						</g>
					</g>
				</g>
				<g>
					<g>
						<g>
							<g>
								<g>
									<path d="M193.5,591.7h-86v-18.3h86V591.7z M110.7,588.6h79.7v-12h-79.7V588.6z"/>
								</g>
							</g>
						</g>
					</g>
				</g>
			</g>
			<g>
				<g>
					<g>
						<g>
							<g>
								<g>
									<polygon fill="#FFFFFF" points="130.9,575 130.9,534.7 170.2,520.3 170.2,575 									"/>
								</g>
							</g>
						</g>
					</g>
				</g>
				<g>
					<g>
						<g>
							<g>
								<g>
									<path d="M171.7,576.5h-42.4v-42.9l42.4-15.6V576.5z M132.5,573.4h36.2v-50.9l-36.2,13.3V573.4z"/>
								</g>
							</g>
						</g>
					</g>
				</g>
			</g>
			<g>
				<g>
					<g>
						<g>
							<g>
								<g>
									<polygon fill="#FFFFFF" points="109.1,575 130.9,558.4 170.2,558.4 192,575 									"/>
								</g>
							</g>
						</g>
					</g>
				</g>
				<g>
					<g>
						<g>
							<g>
								<g>
									<path d="M196.6,576.5h-92.1l25.9-19.7h40.3L196.6,576.5z M113.7,573.4h73.6L169.7,560h-38.2L113.7,573.4z"/>
								</g>
							</g>
						</g>
					</g>
				</g>
			</g>
		</g>
		<g>
			<g>
				<g>
					<g>
						<g>
							<g>
								<path fill="#FFFFFF" d="M103.1,810.3v30.3c0,16.3,13.2,29.5,29.5,29.5h36c16.3,0,29.5-13.2,29.5-29.5v-30.3H103.1z"/>
							</g>
						</g>
					</g>
				</g>
			</g>
			<g>
				<g>
					<g>
						<g>
							<g>
								<path d="M168.6,871.6h-36c-17.1,0-31-13.9-31-31v-31.8h98.1v31.8C199.6,857.7,185.7,871.6,168.6,871.6z M104.6,811.8v28.7
									c0,15.4,12.5,27.9,27.9,27.9h36c15.4,0,27.9-12.5,27.9-27.9v-28.7H104.6z"/>
							</g>
						</g>
					</g>
				</g>
			</g>
		</g>
		<g>
			<g>
				<g>
					<g>
						<g>
							<g>
								<rect x="103.1" y="590.1" fill="#FFFFFF" width="94.9" height="220.1"/>
							</g>
						</g>
					</g>
				</g>
			</g>
			<g>
				<g>
					<g>
						<g>
							<g>
								<path d="M199.6,811.8h-98.1V588.6h98.1V811.8z M104.6,808.7h91.8v-217h-91.8V808.7z"/>
							</g>
						</g>
					</g>
				</g>
			</g>
		</g>
	</g>
	<g>
		<g>
			<g>
				<g>
					<g>
						<g>
							<g>
								<g>
									<polygon fill="#FFFFFF" points="1227.1,428.3 1227.1,332.2 1172.9,332.2 1172.9,428.3 									"/>
								</g>
							</g>
						</g>
					</g>
				</g>
				<g>
					<g>
						<g>
							<g>
								<g>
									<path d="M1228.6,429.8h-57.3l0-99.2h57.3L1228.6,429.8z M1174.5,426.7h51l0-93h-51L1174.5,426.7z"/>
								</g>
							</g>
						</g>
					</g>
				</g>
			</g>
			<g>
				<g>
					<g>
						<g>
							<g>
								<g>
									<path fill="#FFFFFF" d="M1301.8,428.3c2.2,0,3.9-1.8,3.9-3.9v-88.2c0-2.2-1.8-3.9-3.9-3.9h-74.8l0,96.1H1301.8z"/>
								</g>
							</g>
						</g>
					</g>
				</g>
				<g>
					<g>
						<g>
							<g>
								<g>
									<path d="M1301.8,429.8h-76.3l0-99.2h76.3c3,0,5.5,2.5,5.5,5.5v88.2C1307.3,427.4,1304.9,429.8,1301.8,429.8z M1228.6,426.7
										h73.2c1.3,0,2.4-1.1,2.4-2.4v-88.2c0-1.3-1.1-2.4-2.4-2.4h-73.2L1228.6,426.7z"/>
								</g>
							</g>
						</g>
					</g>
				</g>
			</g>
			<g>
				<g>
					<g>
						<g>
							<g>
								<g>
									<path fill="#FFFFFF" d="M1015.6,332.2c-2.2,0-3.9,1.8-3.9,3.9l0,88.2c0,2.1,1.8,3.9,3.9,3.9h49l0-96.1H1015.6z"/>
								</g>
							</g>
						</g>
					</g>
				</g>
				<g>
					<g>
						<g>
							<g>
								<g>
									<path d="M1066.2,429.8h-50.6c-3,0-5.5-2.5-5.5-5.5l0-88.2c0-1.5,0.6-2.8,1.6-3.9s2.4-1.6,3.9-1.6h50.6L1066.2,429.8z
										 M1015.6,333.8c-0.6,0-1.2,0.2-1.7,0.7c-0.4,0.4-0.7,1-0.7,1.7l0,88.2c0,1.3,1.1,2.4,2.4,2.4h47.5l0-93H1015.6z"/>
								</g>
							</g>
						</g>
					</g>
				</g>
			</g>
			<g>
				<g>
					<g>
						<g>
							<g>
								<g>
									<polygon fill="#FFFFFF" points="1118.8,428.3 1172.9,428.3 1172.9,332.2 1118.8,332.2 									"/>
								</g>
							</g>
						</g>
					</g>
				</g>
				<g>
					<g>
						<g>
							<g>
								<g>
									<path d="M1174.5,429.8h-57.3v-99.2h57.3L1174.5,429.8z M1120.4,426.7h51l0-93h-51V426.7z"/>
								</g>
							</g>
						</g>
					</g>
				</g>
			</g>
			<g>
				<g>
					<g>
						<g>
							<g>
								<g>
									<polygon fill="#FFFFFF" points="1064.7,332.2 1064.7,428.3 1118.8,428.3 1118.8,332.2 									"/>
								</g>
							</g>
						</g>
					</g>
				</g>
				<g>
					<g>
						<g>
							<g>
								<g>
									<path d="M1120.4,429.8h-57.3l0-99.2h57.3V429.8z M1066.2,426.7h51v-93h-51L1066.2,426.7z"/>
								</g>
							</g>
						</g>
					</g>
				</g>
			</g>
		</g>
		<g>
			<g>
				<g>
					<g>
						<g>
							<g>
								<path d="M1276,399c-10.3,0-18.7-8.4-18.7-18.7c0-10.3,8.4-18.7,18.7-18.7s18.7,8.4,18.7,18.7
									C1294.7,390.6,1286.3,399,1276,399z M1276,364.6c-8.6,0-15.6,7-15.6,15.6c0,8.6,7,15.6,15.6,15.6c8.6,0,15.6-7,15.6-15.6
									C1291.6,371.6,1284.6,364.6,1276,364.6z"/>
							</g>
						</g>
					</g>
				</g>
			</g>
		</g>
		<g>
			<g>
				<g>
					<g>
						<g>
							<g>
								<path d="M1276,399c-6.7,0-12.9-3.6-16.2-9.4c-2.5-4.3-3.2-9.4-1.9-14.2c1.3-4.8,4.4-8.9,8.7-11.4c2.8-1.6,6.1-2.5,9.3-2.5
									c6.7,0,12.9,3.6,16.2,9.4c2.5,4.3,3.2,9.4,1.9,14.2c-1.3,4.8-4.4,8.9-8.7,11.4C1282.5,398.1,1279.3,399,1276,399z
									 M1276,364.6c-2.7,0-5.4,0.7-7.8,2.1c-3.6,2.1-6.2,5.5-7.3,9.5c-1.1,4-0.5,8.2,1.6,11.8c2.8,4.8,8,7.8,13.5,7.8
									c2.7,0,5.4-0.7,7.8-2.1c3.6-2.1,6.2-5.5,7.3-9.5c1.1-4,0.5-8.2-1.6-11.8C1286.7,367.6,1281.5,364.6,1276,364.6z"/>
							</g>
						</g>
					</g>
				</g>
			</g>
		</g>
		<g>
			<g>
				<g>
					<g>
						<g>
							<g>
								<path d="M1276,399c-3.3,0-6.5-0.9-9.4-2.5c-4.3-2.5-7.4-6.5-8.7-11.4c-1.3-4.8-0.6-9.9,1.9-14.2c3.3-5.8,9.6-9.4,16.2-9.4
									c3.3,0,6.5,0.9,9.3,2.5c4.3,2.5,7.4,6.5,8.7,11.4c1.3,4.8,0.6,9.9-1.9,14.2C1288.9,395.4,1282.6,399,1276,399z M1276,364.6
									c-5.6,0-10.8,3-13.5,7.8c-2.1,3.6-2.6,7.8-1.6,11.8c1.1,4,3.7,7.4,7.3,9.5c2.4,1.4,5.1,2.1,7.8,2.1c5.6,0,10.8-3,13.5-7.8
									c2.1-3.6,2.6-7.8,1.6-11.9c-1.1-4-3.7-7.4-7.3-9.5C1281.4,365.3,1278.7,364.6,1276,364.6z"/>
							</g>
						</g>
					</g>
				</g>
			</g>
		</g>
		<g>
			<g>
				<g>
					<g>
						<g>
							<g>
								<g>
									<polygon fill="#FFFFFF" points="1209.6,397.4 1257.6,314.2 1210.8,287.1 1162.7,370.3 									"/>
								</g>
							</g>
						</g>
					</g>
				</g>
				<g>
					<g>
						<g>
							<g>
								<g>
									<path d="M1210.2,399.5l-49.6-28.6l49.6-85.9l49.6,28.6L1210.2,399.5z M1164.8,369.8l44.2,25.5l46.5-80.5l-44.2-25.5
										L1164.8,369.8z"/>
								</g>
							</g>
						</g>
					</g>
				</g>
			</g>
			<g>
				<g>
					<g>
						<g>
							<g>
								<g>
									<path fill="#FFFFFF" d="M1274.4,434.8c1.9,1.1,4.3,0.4,5.4-1.4l44.1-76.4c1.1-1.9,0.4-4.3-1.4-5.4l-64.8-37.4l-48,83.2
										L1274.4,434.8z"/>
								</g>
							</g>
						</g>
					</g>
				</g>
				<g>
					<g>
						<g>
							<g>
								<g>
									<path d="M1276.3,436.9L1276.3,436.9c-1,0-1.9-0.3-2.7-0.7l-66.1-38.2l49.6-85.9l66.1,38.2c1.3,0.7,2.2,1.9,2.6,3.3
										c0.4,1.4,0.2,2.9-0.5,4.2l-44.1,76.4C1280.1,435.8,1278.3,436.9,1276.3,436.9z M1211.7,396.8l63.4,36.6
										c1.1,0.6,2.6,0.2,3.2-0.9l44.1-76.4c0.3-0.5,0.4-1.2,0.2-1.8c-0.2-0.6-0.6-1.1-1.1-1.4l-63.4-36.6L1211.7,396.8z"/>
								</g>
							</g>
						</g>
					</g>
				</g>
			</g>
			<g>
				<g>
					<g>
						<g>
							<g>
								<g>
									<path fill="#FFFFFF" d="M1074.5,208.5c-1.9-1.1-4.3-0.4-5.4,1.4l-44.1,76.4c-1.1,1.9-0.4,4.3,1.4,5.4l42.4,24.5l48-83.2
										L1074.5,208.5z"/>
								</g>
							</g>
						</g>
					</g>
				</g>
				<g>
					<g>
						<g>
							<g>
								<g>
									<path d="M1069.5,318.3l-43.8-25.3c-1.3-0.7-2.2-1.9-2.5-3.3c-0.4-1.4-0.2-2.9,0.5-4.2l44.1-76.4c1.4-2.5,5-3.5,7.5-2
										l43.8,25.3L1069.5,318.3z M1072.6,209.5c-0.8,0-1.6,0.4-2.1,1.2l-44.1,76.4c-0.3,0.5-0.4,1.2-0.2,1.8
										c0.2,0.6,0.6,1.1,1.1,1.4l41.1,23.7l46.5-80.5l-41.1-23.7C1073.4,209.6,1073,209.5,1072.6,209.5z"/>
								</g>
							</g>
						</g>
					</g>
				</g>
			</g>
			<g>
				<g>
					<g>
						<g>
							<g>
								<g>
									
										<rect x="1136.2" y="267.1" transform="matrix(-0.866 -0.5 0.5 -0.866 2013.1643 1169.7614)" fill="#FFFFFF" width="54.1" height="96.1"/>
								</g>
							</g>
						</g>
					</g>
				</g>
				<g>
					<g>
						<g>
							<g>
								<g>
									<path d="M1163.3,372.5l-49.6-28.6l49.6-85.9l49.6,28.6L1163.3,372.5z M1118,342.7l44.2,25.5l46.5-80.5l-44.2-25.5
										L1118,342.7z"/>
								</g>
							</g>
						</g>
					</g>
				</g>
			</g>
			<g>
				<g>
					<g>
						<g>
							<g>
								<g>
									
										<rect x="1068.4" y="261" transform="matrix(0.5 -0.866 0.866 0.5 308.6985 1110.8993)" fill="#FFFFFF" width="96.1" height="54.1"/>
								</g>
							</g>
						</g>
					</g>
				</g>
				<g>
					<g>
						<g>
							<g>
								<g>
									<path d="M1116.4,345.4l-49.6-28.6l49.6-85.9l49.6,28.6L1116.4,345.4z M1071.1,315.6l44.2,25.5l46.5-80.5l-44.2-25.5
										L1071.1,315.6z"/>
								</g>
							</g>
						</g>
					</g>
				</g>
			</g>
		</g>
		<g>
			<g>
				<g>
					<g>
						<g>
							<g>
								<g>
									
										<rect x="1189.9" y="287.4" transform="matrix(-0.866 0.5 -0.5 -0.866 2467.3379 -32.2441)" fill="#FFFFFF" width="96.1" height="54.1"/>
								</g>
							</g>
						</g>
					</g>
				</g>
				<g>
					<g>
						<g>
							<g>
								<g>
									<path d="M1209.3,364l-28.6-49.6l85.9-49.6l28.6,49.6L1209.3,364z M1185,315.6l25.5,44.2l80.5-46.5l-25.5-44.2L1185,315.6z"
										/>
								</g>
							</g>
						</g>
					</g>
				</g>
			</g>
			<g>
				<g>
					<g>
						<g>
							<g>
								<g>
									<path fill="#FFFFFF" d="M1247.3,426.7c1.1,1.9,3.5,2.5,5.4,1.4l76.4-44.1c1.9-1.1,2.5-3.5,1.4-5.4l-37.4-64.8l-83.2,48
										L1247.3,426.7z"/>
								</g>
							</g>
						</g>
					</g>
				</g>
				<g>
					<g>
						<g>
							<g>
								<g>
									<path d="M1250.7,430.2L1250.7,430.2c-2,0-3.8-1.1-4.8-2.7l-38.2-66.1l85.9-49.6l38.2,66.1c1.5,2.6,0.6,6-2,7.5l-76.4,44.1
										C1252.6,429.9,1251.7,430.2,1250.7,430.2z M1212,362.5l36.6,63.4c0.4,0.7,1.2,1.2,2.1,1.2l0,0c0.4,0,0.8-0.1,1.2-0.3
										l76.4-44.1c1.1-0.6,1.5-2.1,0.9-3.2l-36.6-63.4L1212,362.5z"/>
								</g>
							</g>
						</g>
					</g>
				</g>
			</g>
			<g>
				<g>
					<g>
						<g>
							<g>
								<g>
									<path fill="#FFFFFF" d="M1187.4,130.8c-1.1-1.9-3.5-2.5-5.4-1.4l-76.4,44.1c-1.9,1.1-2.5,3.5-1.4,5.4l24.5,42.4l83.2-48
										L1187.4,130.8z"/>
								</g>
							</g>
						</g>
					</g>
				</g>
				<g>
					<g>
						<g>
							<g>
								<g>
									<path d="M1128.1,223.4l-25.3-43.8c-1.5-2.6-0.6-6,2-7.5l76.4-44.1c2.5-1.5,6-0.5,7.5,2l25.3,43.8L1128.1,223.4z
										 M1184,130.4c-0.4,0-0.8,0.1-1.2,0.3l-76.4,44.1c-1.1,0.7-1.5,2.1-0.9,3.2l23.7,41.1l80.5-46.5l-23.7-41.1
										C1185.6,130.8,1184.9,130.4,1184,130.4z"/>
								</g>
							</g>
						</g>
					</g>
				</g>
			</g>
			<g>
				<g>
					<g>
						<g>
							<g>
								<g>
									
										<rect x="1183.9" y="219.5" transform="matrix(-0.5 -0.866 0.866 -0.5 1584.6223 1450.0347)" fill="#FFFFFF" width="54.1" height="96.1"/>
								</g>
							</g>
						</g>
					</g>
				</g>
				<g>
					<g>
						<g>
							<g>
								<g>
									<path d="M1182.3,317.1l-28.6-49.6l85.9-49.6l28.6,49.6L1182.3,317.1z M1157.9,268.7l25.5,44.2l80.5-46.5l-25.5-44.2
										L1157.9,268.7z"/>
								</g>
							</g>
						</g>
					</g>
				</g>
			</g>
			<g>
				<g>
					<g>
						<g>
							<g>
								<g>
									
										<rect x="1135.8" y="193.6" transform="matrix(0.866 -0.5 0.5 0.866 48.2604 621.4562)" fill="#FFFFFF" width="96.1" height="54.1"/>
								</g>
							</g>
						</g>
					</g>
				</g>
				<g>
					<g>
						<g>
							<g>
								<g>
									<path d="M1155.2,270.3l-28.6-49.6l85.9-49.6l28.6,49.6L1155.2,270.3z M1130.8,221.8l25.5,44.2l80.5-46.5l-25.5-44.2
										L1130.8,221.8z"/>
								</g>
							</g>
						</g>
					</g>
				</g>
			</g>
		</g>
		<g>
			<g>
				<g>
					<g>
						<g>
							<g>
								<g>
									<rect x="1227.9" y="277.2" fill="#FFFFFF" width="96.1" height="54.1"/>
								</g>
							</g>
						</g>
					</g>
				</g>
				<g>
					<g>
						<g>
							<g>
								<g>
									<path d="M1325.6,332.9h-99.2v-57.3h99.2V332.9z M1229.5,329.8h93v-51h-93V329.8z"/>
								</g>
							</g>
						</g>
					</g>
				</g>
			</g>
			<g>
				<g>
					<g>
						<g>
							<g>
								<g>
									<path fill="#FFFFFF" d="M1227.9,406.1c0,2.2,1.8,3.9,3.9,3.9h88.2c2.2,0,3.9-1.8,3.9-3.9v-74.8h-96.1V406.1z"/>
								</g>
							</g>
						</g>
					</g>
				</g>
				<g>
					<g>
						<g>
							<g>
								<g>
									<path d="M1320.1,411.6h-88.2c-3,0-5.5-2.5-5.5-5.5v-76.3h99.2v76.3C1325.6,409.1,1323.1,411.6,1320.1,411.6z M1229.5,332.9
										v73.2c0,1.3,1.1,2.4,2.4,2.4h88.2c1.3,0,2.4-1.1,2.4-2.4v-73.2H1229.5z"/>
								</g>
							</g>
						</g>
					</g>
				</g>
			</g>
			<g>
				<g>
					<g>
						<g>
							<g>
								<g>
									<path fill="#FFFFFF" d="M1324,119.9c0-2.2-1.8-3.9-3.9-3.9h-88.2c-2.2,0-3.9,1.8-3.9,3.9v49h96.1V119.9z"/>
								</g>
							</g>
						</g>
					</g>
				</g>
				<g>
					<g>
						<g>
							<g>
								<g>
									<path d="M1325.6,170.5h-99.2v-50.6c0-3,2.5-5.5,5.5-5.5h88.2c3,0,5.5,2.5,5.5,5.5V170.5z M1229.5,167.4h93v-47.5
										c0-1.3-1.1-2.4-2.4-2.4h-88.2c-1.3,0-2.4,1.1-2.4,2.4V167.4z"/>
								</g>
							</g>
						</g>
					</g>
				</g>
			</g>
			<g>
				<g>
					<g>
						<g>
							<g>
								<g>
									<rect x="1227.9" y="223" fill="#FFFFFF" width="96.1" height="54.1"/>
								</g>
							</g>
						</g>
					</g>
				</g>
				<g>
					<g>
						<g>
							<g>
								<g>
									<path d="M1325.6,278.7h-99.2v-57.3h99.2V278.7z M1229.5,275.6h93v-51h-93V275.6z"/>
								</g>
							</g>
						</g>
					</g>
				</g>
			</g>
			<g>
				<g>
					<g>
						<g>
							<g>
								<g>
									<rect x="1227.9" y="168.9" fill="#FFFFFF" width="96.1" height="54.1"/>
								</g>
							</g>
						</g>
					</g>
				</g>
				<g>
					<g>
						<g>
							<g>
								<g>
									<path d="M1325.6,224.6h-99.2v-57.3h99.2V224.6z M1229.5,221.5h93v-51h-93V221.5z"/>
								</g>
							</g>
						</g>
					</g>
				</g>
			</g>
		</g>
		<g>
			<g>
				<g>
					<g>
						<g>
							<g>
								<path fill="#FFFFFF" d="M1276,363.1c9.5,0,17.2,7.7,17.2,17.2c0,9.5-7.7,17.2-17.2,17.2c-9.5,0-17.2-7.7-17.2-17.2
									C1258.8,370.8,1266.5,363.1,1276,363.1z"/>
							</g>
						</g>
					</g>
				</g>
			</g>
			<g>
				<g>
					<g>
						<g>
							<g>
								<path d="M1276,399c-10.3,0-18.7-8.4-18.7-18.7c0-10.3,8.4-18.7,18.7-18.7c10.3,0,18.7,8.4,18.7,18.7
									C1294.7,390.6,1286.3,399,1276,399z M1276,364.6c-8.6,0-15.6,7-15.6,15.6c0,8.6,7,15.6,15.6,15.6c8.6,0,15.6-7,15.6-15.6
									S1284.6,364.6,1276,364.6z"/>
							</g>
						</g>
					</g>
				</g>
			</g>
		</g>
	</g>
	<g>
		<g>
			<g>
				<g>
					<g>
						<g>
							<path fill="#FFFFFF" d="M1300.9,583.3c0-11.3,5.8-21.3,14.7-27.1v-20.7H1239v20.7c8.8,5.8,14.7,15.7,14.7,27.1
								s-5.8,21.3-14.7,27.1v20.7h76.6v-20.7C1306.8,604.6,1300.9,594.6,1300.9,583.3z"/>
						</g>
					</g>
				</g>
			</g>
		</g>
		<g>
			<g>
				<g>
					<g>
						<g>
							<path d="M1317.1,632.7h-79.7v-23.1l0.7-0.5c8.7-5.7,14-15.4,14-25.8s-5.2-20-14-25.8l-0.7-0.5v-23.1h79.7v23.1l-0.7,0.5
								c-8.7,5.7-14,15.4-14,25.8c0,10.4,5.2,20,14,25.8l0.7,0.5V632.7z M1240.6,629.5h73.5v-18.3c-9.2-6.3-14.7-16.7-14.7-27.9
								c0-11.2,5.5-21.6,14.7-27.9v-18.3h-73.5v18.3c9.2,6.4,14.7,16.7,14.7,27.9c0,11.2-5.5,21.6-14.7,27.9V629.5z"/>
						</g>
					</g>
				</g>
			</g>
		</g>
	</g>
	<g>
		<g>
			<g>
				<g>
					<g>
						<g>
							<rect x="1265.4" y="545.1" width="3.1" height="76.5"/>
						</g>
					</g>
				</g>
			</g>
		</g>
	</g>
	<g>
		<g>
			<g>
				<g>
					<g>
						<g>
							<path d="M1282.3,593.7c-5.7,0-10.4-4.7-10.4-10.4s4.7-10.4,10.4-10.4s10.4,4.7,10.4,10.4S1288.1,593.7,1282.3,593.7z
								 M1282.3,576c-4,0-7.3,3.3-7.3,7.3s3.3,7.3,7.3,7.3c4,0,7.3-3.3,7.3-7.3S1286.3,576,1282.3,576z"/>
						</g>
					</g>
				</g>
			</g>
		</g>
	</g>
	<g>
		<g>
			<g>
				<g>
					<g>
						<g>
							<path d="M1311.3,870.1h-58l29-50.2L1311.3,870.1z M1258.7,867h47.2l-23.6-40.9L1258.7,867z"/>
						</g>
					</g>
				</g>
			</g>
		</g>
	</g>
	<g>
		<g>
			<g>
				<g>
					<g>
						<g>
							<path d="M1311.3,795.5h-58l29-50.2L1311.3,795.5z M1258.7,792.4h47.2l-23.6-40.9L1258.7,792.4z"/>
						</g>
					</g>
				</g>
			</g>
		</g>
	</g>
	<g>
		<g>
			<g>
				<g>
					<g>
						<g>
							<path d="M1311.3,720.9h-58l29-50.2L1311.3,720.9z M1258.7,717.8h47.2l-23.6-40.9L1258.7,717.8z"/>
						</g>
					</g>
				</g>
			</g>
		</g>
	</g>
	<g>
		<g>
			<g>
				<g>
					<g>
						<g>
							<g>
								<path d="M303.6,427.2H82.7c-4.3,0-7.8-3.5-7.8-7.8V135c0-4.3,3.5-7.8,7.8-7.8h220.9c4.3,0,7.8,3.5,7.8,7.8v284.4
									C311.4,423.7,307.9,427.2,303.6,427.2z M82.7,130.4c-2.6,0-4.7,2.1-4.7,4.7v284.4c0,2.6,2.1,4.7,4.7,4.7h220.9
									c2.6,0,4.7-2.1,4.7-4.7V135c0-2.6-2.1-4.7-4.7-4.7H82.7z"/>
							</g>
						</g>
					</g>
				</g>
			</g>
		</g>
		<g>
			<g>
				<g>
					<g>
						<g>
							<g>
								<path d="M292.7,408.5H93.6V145.9h199.1V408.5z M96.7,405.4h192.9V149.1H96.7V405.4z"/>
							</g>
						</g>
					</g>
				</g>
			</g>
		</g>
		<g>
			<g>
				<g>
					<g>
						<g>
							<g>
								<rect x="300.9" y="144" width="24.7" height="3.1"/>
							</g>
						</g>
					</g>
				</g>
			</g>
		</g>
		<g>
			<g>
				<g>
					<g>
						<g>
							<g>
								<rect x="300.9" y="164.2" width="24.7" height="3.1"/>
							</g>
						</g>
					</g>
				</g>
			</g>
		</g>
		<g>
			<g>
				<g>
					<g>
						<g>
							<g>
								<rect x="300.9" y="184.5" width="24.7" height="3.1"/>
							</g>
						</g>
					</g>
				</g>
			</g>
		</g>
		<g>
			<g>
				<g>
					<g>
						<g>
							<g>
								<rect x="300.9" y="204.8" width="24.7" height="3.1"/>
							</g>
						</g>
					</g>
				</g>
			</g>
		</g>
		<g>
			<g>
				<g>
					<g>
						<g>
							<g>
								<rect x="300.9" y="225" width="24.7" height="3.1"/>
							</g>
						</g>
					</g>
				</g>
			</g>
		</g>
		<g>
			<g>
				<g>
					<g>
						<g>
							<g>
								<rect x="300.9" y="245.3" width="24.7" height="3.1"/>
							</g>
						</g>
					</g>
				</g>
			</g>
		</g>
		<g>
			<g>
				<g>
					<g>
						<g>
							<g>
								<rect x="300.9" y="265.5" width="24.7" height="3.1"/>
							</g>
						</g>
					</g>
				</g>
			</g>
		</g>
		<g>
			<g>
				<g>
					<g>
						<g>
							<g>
								<rect x="300.9" y="285.8" width="24.7" height="3.1"/>
							</g>
						</g>
					</g>
				</g>
			</g>
		</g>
		<g>
			<g>
				<g>
					<g>
						<g>
							<g>
								<rect x="300.9" y="306.1" width="24.7" height="3.1"/>
							</g>
						</g>
					</g>
				</g>
			</g>
		</g>
		<g>
			<g>
				<g>
					<g>
						<g>
							<g>
								<rect x="300.9" y="326.3" width="24.7" height="3.1"/>
							</g>
						</g>
					</g>
				</g>
			</g>
		</g>
		<g>
			<g>
				<g>
					<g>
						<g>
							<g>
								<rect x="300.9" y="346.6" width="24.7" height="3.1"/>
							</g>
						</g>
					</g>
				</g>
			</g>
		</g>
		<g>
			<g>
				<g>
					<g>
						<g>
							<g>
								<rect x="300.9" y="366.9" width="24.7" height="3.1"/>
							</g>
						</g>
					</g>
				</g>
			</g>
		</g>
		<g>
			<g>
				<g>
					<g>
						<g>
							<g>
								<rect x="300.9" y="387.1" width="24.7" height="3.1"/>
							</g>
						</g>
					</g>
				</g>
			</g>
		</g>
		<g>
			<g>
				<g>
					<g>
						<g>
							<g>
								<rect x="300.9" y="407.4" width="24.7" height="3.1"/>
							</g>
						</g>
					</g>
				</g>
			</g>
		</g>
		<g>
			<g>
				<g>
					<g>
						<g>
							<g>
								<rect x="130.9" y="202.5" width="108.2" height="3.1"/>
							</g>
						</g>
					</g>
				</g>
			</g>
		</g>
		<g>
			<g>
				<g>
					<g>
						<g>
							<g>
								<rect x="198" y="258.5" width="58.7" height="3.1"/>
							</g>
						</g>
					</g>
				</g>
			</g>
		</g>
		<g>
			<g>
				<g>
					<g>
						<g>
							<g>
								<rect x="120.6" y="321.3" width="126.1" height="3.1"/>
							</g>
						</g>
					</g>
				</g>
			</g>
		</g>
		<g>
			<g>
				<g>
					<g>
						<g>
							<g>
								<rect x="183.6" y="366.9" width="14.4" height="3.1"/>
							</g>
						</g>
					</g>
				</g>
			</g>
		</g>
	</g>
	<g>
		<g>
			<g>
				<g>
					<g>
						<g>
							<rect x="76.4" y="457" width="62.9" height="3.1"/>
						</g>
					</g>
				</g>
			</g>
		</g>
	</g>
	<g>
		<g>
			<g>
				<g>
					<g>
						<g>
							<rect x="170.2" y="457.1" width="38.8" height="3.1"/>
						</g>
					</g>
				</g>
			</g>
		</g>
	</g>
	<g>
		<g>
			<g>
				<g>
					<g>
						<g>
							<rect x="123.3" y="490" width="54.4" height="3.1"/>
						</g>
					</g>
				</g>
			</g>
		</g>
	</g>
	<g>
		<g>
			<g>
				<g>
					<g>
						<g>
							<path fill="none" stroke="#000000" stroke-miterlimit="10" d="M399.5,730.5"/>
						</g>
					</g>
				</g>
			</g>
		</g>
	</g>
	<g>
		<g>
			<g>
				<g>
					<g>
						<g>
							<path d="M374,829.5c-0.4,0-0.8-0.2-1.1-0.5c-0.5-0.5-0.6-1.3-0.2-1.9c29.4-45.3,54.9-70.5,55.2-70.7c1.8-2,4.1-3.1,6.7-3.1
								c5.1,0,9.5,4.3,9.6,4.4c0.2,0.2,4.6,4.7,4.5,9.9c-0.1,2.5-1.1,4.7-3.1,6.5c-0.2,0.2-25.4,25.8-70.7,55.1
								C374.6,829.4,374.3,829.5,374,829.5z M434.6,756.4c-1.7,0-3.1,0.7-4.4,2.1c-0.3,0.3-23.3,23-50.7,64
								c41-27.4,63.7-50.4,63.9-50.6c1.4-1.3,2.1-2.7,2.2-4.3c0.1-3.8-3.5-7.6-3.5-7.6C442,759.9,438.4,756.4,434.6,756.4z"/>
						</g>
					</g>
				</g>
			</g>
		</g>
	</g>
	<g>
		<g>
			<g>
				<g>
					<g>
						<g>
							<g>
								<path d="M336.3,875.4l-1.8-0.1c-10.2-0.6-22.2-3.5-35.7-8.5l-5-1.9l5.2-1.1c8.8-1.9,15.2-6,20.9-13.2l0.6-0.7l0.9,0.1
									c6.8,1,6.7,5.7,6.6,9.1c0,1.8-0.1,3.6,0.6,5.1c0.7,1.6,2,2.5,3.4,3.4c1.9,1.2,4,2.7,4.2,6L336.3,875.4z M304.5,865.5
									c10.3,3.6,19.7,5.7,27.9,6.5c-0.5-0.6-1.2-1.1-2.2-1.8c-1.5-1-3.4-2.3-4.5-4.7c-0.9-2.1-0.9-4.4-0.8-6.4
									c0.1-3.3,0.1-5.1-3.1-5.8C318.5,857.3,313.3,862.5,304.5,865.5z"/>
							</g>
						</g>
					</g>
				</g>
			</g>
		</g>
		<g>
			<g>
				<g>
					<g>
						<g>
							<g>
								<path d="M338.5,875.4C338.5,875.4,338.5,875.4,338.5,875.4c-1.3,0-2.6,0-4-0.1l-1.4-0.1l-0.1-1.4c-0.1-1.7-1.1-2.4-2.9-3.6
									c-1.5-1-3.4-2.3-4.5-4.7c-0.9-2.1-0.9-4.4-0.8-6.4c0.1-3.6,0.1-5.4-4-6l-2.7-0.4l1.7-2.1c2.2-2.9,4.1-5.9,5.9-8.9
									c5.9-9.6,11.5-18.7,26.6-18.7c6,0,13.1,1.4,21.6,4.4l1,0.3l0.1,1c1,16.5-2.1,28.8-9.4,36.6
									C359.4,872,350.3,875.4,338.5,875.4z M335.9,872.2c0.9,0,1.7,0.1,2.5,0.1c0,0,0,0,0,0c10.9,0,19.3-3,24.9-9
									c6.6-7,9.5-18.1,8.7-33.2c-7.8-2.6-14.2-3.9-19.6-3.9c-13.3,0-18.3,8-23.9,17.2c-1.5,2.4-3,4.8-4.7,7.2
									c4.4,1.6,4.3,5.6,4.2,8.5c0,1.8-0.1,3.6,0.6,5.1c0.7,1.6,2,2.5,3.4,3.4C333.5,868.7,335.3,869.8,335.9,872.2z"/>
							</g>
						</g>
					</g>
				</g>
			</g>
		</g>
	</g>
	<g>
		<g>
			<g>
				<g>
					<g>
						<g>
							
								<rect x="305.6" y="839" transform="matrix(1.879647e-003 1 -1 1.879647e-003 1180.3538 564.9949)" width="3.1" height="69.7"/>
						</g>
					</g>
				</g>
			</g>
		</g>
	</g>
	<g>
		<g>
			<g>
				<g>
					<g>
						<g>
							<rect x="234.9" y="872.2" width="20.8" height="3.1"/>
						</g>
					</g>
				</g>
			</g>
		</g>
	</g>
</g>
</svg>
